<svg xmlns="http://www.w3.org/2000/svg" width="276.207" height="188.691"><defs><linearGradient id="a" x1=".577" x2=".573" y2="1" gradientUnits="objectBoundingBox"><stop offset="0" stop-color="#ffcc70"/><stop offset=".51" stop-color="#c850c0"/><stop offset="1" stop-color="#330867"/></linearGradient></defs><path d="M94.346 0h181.861v188.691H94.346A94.346 94.346 0 0 1 0 94.346 94.346 94.346 0 0 1 94.346 0z" transform="rotate(180 138.103 94.346)" fill="url(#a)"/><path d="M194.467 100.167a2.539 2.539 0 0 1 2.531 2.531 2.381 2.381 0 0 1-.76 1.772 2.526 2.526 0 0 1-1.772.76H41.561a2.539 2.539 0 0 1-2.532-2.532 2.381 2.381 0 0 1 .759-1.772 2.527 2.527 0 0 1 1.772-.759h152.907z" fill="#ebb886"/><path d="M188.897 105.23v39.745a2.616 2.616 0 1 1-5.232 0V105.23z" fill="#ebb886"/><path d="M188.265 90.589l-.253 2.953h-7.763l-.212-2.953z" fill="#48ffff"/><path d="M188.012 93.543l-.169 1.941h-7.426l-.169-1.941z" fill="#d2fffe"/><path d="M187.843 95.484l-.211 2.869a1.8 1.8 0 0 1-1.6 1.814h-3.755a1.77 1.77 0 0 1-1.6-1.814l-.218-2.869z" fill="#48ffff"/><path fill="#ebb886" d="M87.508 105.23h96.199v9.325H87.508z"/><path d="M166.197 100.167h-9.493c.085-1.9 2.194-3.375 4.726-3.375s4.683 1.477 4.767 3.375zM154.215 85.399v3.671a3.385 3.385 0 0 1-3.375 3.375h-1.941l-.253-3.375-8.059.591.211 2.743-.38.042h-25.527l.211-1.435-7.468-1.013-.338 2.447h-1.139a3.385 3.385 0 0 1-3.375-3.375v-3.671zM154.215 61.097v24.3H102.74V61.054a3.385 3.385 0 0 1 3.375-3.375h44.725a3.45 3.45 0 0 1 3.375 3.418zm-2.489 21.982V61.603a1.6 1.6 0 0 0-1.6-1.6h-43.378a1.6 1.6 0 0 0-1.6 1.6v21.476z" fill="#e2e2e2"/><path d="M151.726 61.6v21.476h-46.539V61.6a1.6 1.6 0 0 1 1.6-1.6h43.374a1.652 1.652 0 0 1 1.565 1.6z" fill="#51576b"/><path d="M150.628 94.513a1.606 1.606 0 0 1-1.477 1.73l-6.455.464a1.606 1.606 0 0 0 1.477-1.73l3.249-.253 1.6-.127z" fill="#d1f7c9"/><path d="M148.899 93.036l.127 1.6-1.6.127-3.249.253a1.608 1.608 0 1 1-3.207.253l-.211-2.827-.211-2.742 8.059-.591.253 3.375z" fill="#d1f7c9"/><path d="M140.376 100.167h-23.839a2.48 2.48 0 0 1 2.278-2.658 5.106 5.106 0 0 0 4.262-2.11 7.382 7.382 0 0 0 .844-2.954h9.071c.675 3.08 2.236 5.063 5.105 5.063a2.154 2.154 0 0 1 1.6.759 2.893 2.893 0 0 1 .679 1.9z" fill="#e2e2e2"/><path d="M115.06 91.011l-.211 1.435-.506 3.71a1.492 1.492 0 0 1-2.954-.422l-3.038-.422-1.477-.211.211-1.477.169-1.224.338-2.447z" fill="#fff5de"/><path d="M112.698 97.466l-5.991-.8a1.485 1.485 0 0 1-1.266-1.688l1.477.211 1.477.211 3.038.422a1.46 1.46 0 0 0 1.265 1.644z" fill="#fff5de"/><path d="M94.217 88.437v7.848a3.475 3.475 0 0 1-3.46 3.46h-3.206a3.476 3.476 0 0 1-3.46-3.46v-7.848z" fill="#ff7382"/><path d="M87.467 126.411v21.181H47.046v-21.181zm-5.19 17v-12.865h-30v12.865zM87.467 105.23v21.181H47.046V105.23zm-5.19 17v-12.823h-30v12.823z" fill="#ebb886"/><path fill="#ebb886" d="M52.235 130.588h29.999v12.869H52.235zM52.235 109.407h29.999v12.869H52.235z"/><path d="M69.872 63.67l3.629 3.629-2.616 2.616-4.388 4.388-2.616 2.616-3.629-3.629a6.732 6.732 0 0 1-1.561-7.173l4.051-4.051a6.5 6.5 0 0 1 2.363-.422 6.864 6.864 0 0 1 4.767 2.026z" fill="#00d3ff"/><path d="M70.884 69.915a3.028 3.028 0 0 1 .886 2.152 3.115 3.115 0 0 1-3.122 3.122 3.028 3.028 0 0 1-2.152-.886z" fill="#ffe499"/><path d="M69.112 99.243v.928H50.674v-.928a3.007 3.007 0 0 1 3-3h12.447a2.98 2.98 0 0 1 2.991 3z" fill="#00d3ff"/><path d="M63.585 96.243h-7.384a3.692 3.692 0 1 1 7.384 0zM62.699 62.109l-4.05 4.05a2.9 2.9 0 0 1 0-4.05 2.827 2.827 0 0 1 4.05 0z" fill="#00d3ff"/><path d="M47.046 76.497a2.932 2.932 0 1 1-2.91 2.954 2.9 2.9 0 0 1 2.91-2.954z" fill="#bee1e5"/><g transform="translate(39.562 57.721)"><path fill="#141414" opacity=".35" d="M47.904 48.226h96.03v8.439h-96.03z"/><path d="M54.655 30.716h-9.957v1.477h1.941v2.911a1.477 1.477 0 1 0 2.953 0v-2.911h5.063z" fill="#fff" opacity=".35"/><path d="M77.482 2.321L65.71 14.051v7.97l19.746-19.7zM90.603 2.321l-23.29 23.29h16.16L106.89 2.152z" fill="#fff" opacity=".15"/><path d="M69.043 27.678l-4.937 4.979v1.266l.844.844h2.743l.338-2.489 1.73.253 4.894-4.937zM75.878 28.101l-4.683 4.683h1.266l4.852-4.81z" fill="#fff" opacity=".5"/><path d="M103.219 31.771l5.823-.422.253 3.375h1.941l2.616-1.224.759-2.152v-3.67h-5.148a4.634 4.634 0 0 1-1.392 2.11 8.274 8.274 0 0 1-4.852 1.983" fill="#141414" opacity=".08"/><path fill="#141414" opacity=".12" d="M75.583 33.248h25.4v1.266h-25.4z"/><path d="M101.531 38.015a6.4 6.4 0 0 0 6.2-6.582l1.308-.084.422 5.443h1.6l-.169.844-.928.886-6.835.506z" fill="#141414" opacity=".08"/><path d="M101.363 36.792l.169-.633a5.648 5.648 0 0 1 3.671-3.882l2.025-.675-6.2.338z" fill="#fff" opacity=".3"/><path d="M67.186 37.425c3.713.8 7.046.675 8.185-4.219l-.928 5.991-1.139.506-6.835-1.055-.675-1.308z" fill="#141414" opacity=".08"/><path d="M67.482 36.243l.549-3.966 4.3.591-1.181.127a4.034 4.034 0 0 0-3.207 2.321z" fill="#fff"/><path fill="#141414" opacity=".25" d="M84.359 34.387h9.156v2.7h-9.156zM7.484 47.424h40.463v2.405H7.484z"/><path d="M18.876 12.362c5.907 5.105 13.291-.548 12.827-5.063l2.236 2.236-5.991 5.991-3.672 3.673c-1.73-1.857-3.46-3.671-5.19-5.485z" fill="#141414" opacity=".08"/><path d="M26.935 38.733v-.211l.338.211z" fill="#141414" opacity=".15"/><path d="M29.044 39.833l-.422-.253-1.35-.844h-.338a1.414 1.414 0 0 1-.928 1.181c-2.658 1.477-10.379 1.266-14.852 1.055l-.211 1.477h18.901z" fill="#141414" opacity=".08"/><path d="M12.041 38.733h14.894a1.414 1.414 0 0 1-.928 1.181H12.041z" fill="#fff" opacity=".5"/><path d="M28.622 38.733v.844l-1.35-.844z" fill="#fff" opacity=".3"/><path d="M114.062 47.509c11.6.126 22.109-.464 22.447-5.063h19.953l.928 2.531-1.266 2.194-18.48.338z" fill="#141414" opacity=".1"/><path d="M144.568 46.834H91.49a45.4 45.4 0 0 0-5.358 0H47.947v3h53.711a16.845 16.845 0 0 1 10.506 3.586 10.785 10.785 0 0 1 2.532 2.742h29.451l.3-6.329h.127z" fill="#141414" opacity=".15"/><path d="M22.294 89.87z" fill="#fff" opacity=".3"/><path d="M42.715 62.104a14.207 14.207 0 0 0 5.19-1.6v8.143H7.484v-2.321c8.228.042 35.231-1.814 35.231-1.814v-2.4z" fill="#141414" opacity=".1"/><path d="M11.242 88.52a2.917 2.917 0 0 1-1.9-1.013 2.869 2.869 0 0 1-.675-1.6L7.442 73.499V89.87h14.767z" fill="#fff" opacity=".35"/><path d="M47.904 81.727v8.143H22.251l-11.012-1.35a2.916 2.916 0 0 1-1.9-1.013c9.831-.169 33.332-1.814 33.332-1.814v-2.4a15.166 15.166 0 0 0 5.233-1.566z" fill="#141414" opacity=".1"/><path d="M148.829 32.868h-2.025c.042.506.084 1.013.084 1.477a9.428 9.428 0 0 1-1.561 5.021 2.786 2.786 0 0 1-2.278 1.224h-1.308v1.645c-.169.042-.38.127-.549.169l-.338.042h7.215v-1.9l.633-6.2z" fill="#141414" opacity=".08"/><path d="M146.846 32.868c.042.506.084 1.013.084 1.477h-6.455v-1.477z" fill="#fff" opacity=".3"/><path d="M148.829 32.868v1.477h-.127z" fill="#141414"/><path fill="#fff" opacity=".5" d="M76.975 40.21h23.248v2.236H76.975z"/><path d="M27.568 4.346l-3.629-.38-1.688 1.435a1.438 1.438 0 0 0 .042.422l-.759-.169-3.038 3.291.169 2.321 2.953-3.038a1.3 1.3 0 0 1 1.9 0l.169.169a3.684 3.684 0 0 0 2.321.8 3.742 3.742 0 0 0 3.333-2.025 4.475 4.475 0 0 0 .422-1.266z" fill="#fff" opacity=".35"/><path d="M108.873 54.724h-54.26a5.791 5.791 0 0 0-4.683 2.11h63.626a5.791 5.791 0 0 0-4.683-2.11z" fill="#fff" opacity=".15"/><ellipse cx=".759" cy=".759" rx=".759" ry=".759" transform="translate(6.724 20.97)" fill="#141414" opacity=".25"/><path d="M5.332 22.658a2.616 2.616 0 0 1 5.232 0l-.759-3.08-2.489-1.055-2.025 1.224-.8 1.814z" fill="#fff" opacity=".3"/><path d="M9.509 20.21a2.625 2.625 0 1 1-5.105 1.224l1.435 2.827 2.658.464 1.688-1.646.338-1.983zM29.551 15.906l2.489-2.489-.717-1.266-3.038 3.08-.084-.084-.633.759-.38.464-.253.338 1.181.506 2.574-.211 1.392-1.308v-.591a2.536 2.536 0 0 1-2.531.802z" fill="#141414" opacity=".15"/><ellipse cx="1.35" cy=".844" rx="1.35" ry=".844" transform="translate(23.812 5.316)" fill="#fff" opacity=".35"/><path d="M18.707 8.185l-.422-2.194 2.405-3.038 1.856 1.266z" fill="#fff" opacity=".5"/><ellipse cx="1.646" cy=".886" rx="1.646" ry=".886" transform="rotate(-22.955 97.545 -25.426)" fill="#fff" opacity=".5"/><path d="M157.563 44.134H2.842a2.382 2.382 0 0 0-1.772.759 2.527 2.527 0 0 0-.759 1.772c0 .464-.928-3.8.422-3.8h154.636a2.468 2.468 0 0 1 2.194 1.269z" fill="#fff" opacity=".35"/><path fill="#141414" opacity=".25" d="M143.935 47.382h5.443v2.953h-5.443z"/><path d="M144.146 80.926c0 2.658 5.232 2.489 5.232-12.236v21.181h-5.232zM13.095 82.739c0 1.9 29.619 2.447 29.619-6.413v9.367H13.095zM13.095 61.643c0 1.9 29.619 2.447 29.619-6.413v9.367H13.095z" fill="#141414" opacity=".1"/><path d="M42.714 72.867h-30v1.181h-.083l.928 8.185 1.055-6.5a1.183 1.183 0 0 1 1.181-1.013h26.961v-1.853zM42.716 51.686h-30v1.856l.38 7 1.392-6.076a1.17 1.17 0 0 1 1.139-.928h27.089z" fill="#fff" opacity=".35"/><path d="M48.116 68.943H7.653v1.435l.548 4.979.844-3.966a1.272 1.272 0 0 1 1.266-1.013h37.8z" fill="#fff" opacity=".35"/><path d="M45.162 38.06c0 1.6 8.9 2.405 8.9-3.8v6.2l-1.435 1.224h-6.663l-1.73-2.11.464-1.055z" fill="#141414" opacity=".05"/><path d="M68.832 35.99h-1.013a3.355 3.355 0 0 1-2.954-1.73 3.191 3.191 0 0 1-.422-1.646V3.8a2.539 2.539 0 0 1 2.532-2.532h45.568a3.839 3.839 0 0 1 1.688.422A3.4 3.4 0 0 0 111.278 0H66.553a3.385 3.385 0 0 0-3.375 3.375v27.974a3.4 3.4 0 0 0 3.375 3.375h1.013" fill="#fff" opacity=".75"/><path d="M113.003 3.882v21.6a.711.711 0 0 1-.717.717H66.469a1.243 1.243 0 0 1-1.266-1.266h46.538V2.621a.719.719 0 0 0-.042-.3 1.618 1.618 0 0 1 1.304 1.561z" fill="#fff" opacity=".75"/><ellipse cx="2.11" cy=".759" rx="2.11" ry=".759" transform="rotate(-11.5 256.048 -566.53)" fill="#fff" opacity=".5"/><path d="M143.176 34.176h.38a1.036 1.036 0 0 1 1.055 1.013v2.532a1.01 1.01 0 0 1-1.055 1.013 1.04 1.04 0 0 1-1.013-.886l-.38-2.532a1 1 0 0 1 1.013-1.14z" fill="#fff" opacity=".59"/></g><g transform="translate(30.38 57.721)" stroke="#3a4061" stroke-miterlimit="10"><path d="M41.391 14.346a3.115 3.115 0 0 1-3.122 3.122 3.028 3.028 0 0 1-2.152-.886l4.388-4.388a3.028 3.028 0 0 1 .886 2.152zM28.311 4.389c-7.974-2.278-10.717 9.325-10.633 14.641M15.612 24.472c-.591 5.232 4.051 5.19 7.173 5.316 4.472.169 7.131 1.181 7.131 5.063" fill="none" stroke-linecap="round" stroke-linejoin="round"/><ellipse cx="1.35" cy="1.35" rx="1.35" ry="1.35" transform="translate(96.706 29.999)" fill="#f0f0f2"/><path d="M32.995 79.28h7.384M32.995 58.099h7.384M119.785 2.321h-43.42a1.6 1.6 0 0 0-1.6 1.6v21.476h46.581V3.921a1.594 1.594 0 0 0-1.561-1.6zM88.436 40.21h6.413M96.916 40.21h1.139M157.674 35.822h-7.848M157.548 37.762h-7.595M77.93 47.509l-5.696 5.696M81.221 47.509l-2.996 2.996M54.597 68.69v4.599M130.08 56.834l2.067-2.11" fill="none" stroke-linecap="round" stroke-linejoin="round"/><path d="M118.646 36.919l-.127-1.6-.3-3.966-8.059.591.422 5.569a1.608 1.608 0 1 0 3.206-.253l3.249-.253 1.6-.084 1.6-.127a1.606 1.606 0 0 1-1.477 1.73l-6.455.464M82.318 39.745l-5.991-.8a1.485 1.485 0 0 1-1.266-1.688l1.477.211 1.477.211 3.038.422a1.459 1.459 0 0 0 1.266 1.646 1.485 1.485 0 0 0 1.688-1.266l.675-5.19-7.468-1.013-.506 3.713-.211 1.477M111.599 33.923l5.569-.422M111.895 35.695l2.869-.211M115.523 35.442l1.73-.169M109.996 34.725H84.343" fill="none" stroke-linejoin="round"/><path d="M76.748 34.725h-1.013a3.385 3.385 0 0 1-3.375-3.375V3.376A3.385 3.385 0 0 1 75.735.001h44.725a3.385 3.385 0 0 1 3.375 3.375V31.35a3.385 3.385 0 0 1-3.375 3.375h-2.321" fill="none" stroke-linejoin="round"/><path stroke-linecap="round" stroke-linejoin="round" fill="none" d="M123.793 27.678H72.318M33.206 38.522h2.532a3.007 3.007 0 0 1 3 3v.928H20.295v-.928a3.007 3.007 0 0 1 3-3h2.532M33.206 38.522h-7.384a3.718 3.718 0 0 1 3.713-3.713 3.656 3.656 0 0 1 3.671 3.713zM32.319 4.388l-4.05 4.05a2.9 2.9 0 0 1 0-4.05 2.827 2.827 0 0 1 4.05 0z"/><ellipse cx="2.953" cy="2.953" rx="2.953" ry="2.953" transform="translate(13.713 18.776)" stroke-linecap="round" stroke-linejoin="round" fill="none"/><path stroke-linecap="round" stroke-linejoin="round" fill="none" d="M27.974 35.146L17.552 24.767M28.269 8.396a6.813 6.813 0 0 0 1.561 7.173l3.629 3.629 2.616-2.616 4.388-4.388 2.616-2.616-3.632-3.629a6.915 6.915 0 0 0-4.81-1.983 6.5 6.5 0 0 0-2.363.422M17.721 18.986l10.548-10.59M60.378 42.024h-3.207a3.476 3.476 0 0 1-3.46-3.46v-7.89h10.126v7.89a3.476 3.476 0 0 1-3.459 3.46zM164.087 47.509H11.139a2.539 2.539 0 0 1-2.532-2.532 2.539 2.539 0 0 1 2.532-2.531h152.948a2.539 2.539 0 0 1 2.532 2.531 2.539 2.539 0 0 1-2.532 2.532zM63.837 38.522h.928a2.737 2.737 0 0 0 2.743-2.742 2.737 2.737 0 0 0-2.743-2.743h-.928M16.666 47.509h40.421V89.87H16.666zM57.087 68.69H16.666"/><path stroke-linecap="round" stroke-linejoin="round" fill="none" d="M21.856 72.867h29.999v12.827H21.856zM21.856 51.686h29.999v12.827H21.856zM102.612 34.724c.675 3.08 2.236 5.063 5.105 5.063a2.154 2.154 0 0 1 1.6.759 2.893 2.893 0 0 1 .675 1.9H86.157a2.48 2.48 0 0 1 2.278-2.658 5.106 5.106 0 0 0 4.262-2.11 7.382 7.382 0 0 0 .844-2.954M153.328 47.509h5.232V89.87h-5.232z"/><path fill="none" d="M57.129 47.509h96.199v9.325H57.129z"/><path d="M151.851 42.446h3.755a1.77 1.77 0 0 0 1.6-1.814l.633-7.763h-8.224l.633 7.763a1.8 1.8 0 0 0 1.603 1.814zM6.54 89.87h165.901M3.375 89.87H0M126.325 42.445c.085-1.857 2.194-3.375 4.726-3.375s4.641 1.519 4.768 3.375M157.251 25.822l-.97 7.046M153.37 32.868v-4.852" fill="none" stroke-linecap="round" stroke-linejoin="round"/><path fill="none" stroke-linejoin="round" d="M78.014 35.779l3.629.464M78.31 34.218l4.43.591"/><path stroke-linecap="round" stroke-linejoin="round" fill="none" d="M34.26 15.021l-2.405 2.447"/></g></svg>