<svg xmlns="http://www.w3.org/2000/svg" xmlns:xlink="http://www.w3.org/1999/xlink" width="276.207" height="188.691" viewBox="0 0 276.207 188.691"><defs><linearGradient id="a" x1="0.556" y1="1" x2="0.55" gradientUnits="objectBoundingBox"><stop offset="0" stop-color="#ffcc70"/><stop offset="0.51" stop-color="#c850c0"/><stop offset="1" stop-color="#330867"/></linearGradient></defs><g transform="translate(346.387 255.367)"><path d="M94.346,0H276.207a0,0,0,0,1,0,0V188.691a0,0,0,0,1,0,0H94.346A94.346,94.346,0,0,1,0,94.346v0A94.346,94.346,0,0,1,94.346,0Z" transform="matrix(1, 0, 0, 1, -346.387, -255.367)" fill="url(#a)"/><g transform="translate(-307.007 -228.716)"><g transform="translate(21.56 0)" opacity="0.25"><g transform="translate(0 0.063)"><path d="M382.563,181.8v3.038H250.5V181.8Z" transform="translate(-250.5 -181.8)" fill="#faf4ed"/><path d="M381.875,189l1.266,4.852H254.2L255.466,189H381.875Z" transform="translate(-252.639 -185.962)" fill="#f5f5f7"/><path d="M381.875,200.5l1.266,4.852H254.2l1.266-4.852H381.875Z" transform="translate(-252.639 -192.61)" fill="#f5f5f7"/><path d="M381.875,212l1.266,4.852H254.2L255.466,212H381.875Z" transform="translate(-252.639 -199.258)" fill="#f5f5f7"/><path d="M469.608,223.5v58.859H417.5V223.5h3.586v55.1h44.935V223.5h3.586Z" transform="translate(-347.038 -205.906)" fill="#faf4ed"/><path d="M515.216,245v46.032H502.6v-.169h5.949V264.324h1.814v-2.954H502.6V245h12.616Zm-1.941,40.083V282.3H510.49v2.785Zm0-5.021v-2.785H510.49v2.785Zm0-5.021v-2.785H510.49v2.785Zm0-5.021v-2.785H510.49v2.785Zm0-5.021v-2.785H510.49V265Zm0-5.021v-2.743H510.49v2.785h2.785Zm0-5.021v-2.785H510.49v2.785Zm0-4.979v-2.785H510.49v2.785Zm-5.19,10v-2.743H505.3v2.785h2.785Zm0-5.021v-2.785H505.3v2.785Zm0-4.979v-2.785H505.3v2.785Z" transform="translate(-396.232 -218.334)" fill="#f7f7f7"/><path d="M470.935,223.5v9.071H458.362v16.371h-9.873V251.9h1.772v26.539h8.1v.169H446.126V227.719H426V223.5Z" transform="translate(-351.952 -205.906)" fill="#f7feff"/><rect width="2.785" height="2.785" transform="translate(114.258 63.964)" fill="#f7feff"/><rect width="2.785" height="2.785" transform="translate(114.258 58.943)" fill="#f7feff"/><rect width="2.785" height="2.785" transform="translate(114.258 53.922)" fill="#f7feff"/><rect width="2.785" height="2.785" transform="translate(114.258 48.943)" fill="#f7feff"/><rect width="2.785" height="2.785" transform="translate(114.258 43.923)" fill="#f7feff"/><rect width="2.785" height="2.785" transform="translate(114.258 38.902)" fill="#f7feff"/><rect width="2.785" height="2.785" transform="translate(114.258 33.881)" fill="#f7feff"/><rect width="2.785" height="2.785" transform="translate(114.258 28.86)" fill="#f7feff"/><path d="M496.894,283.8v2.953H479.3V283.8h17.594Z" transform="translate(-382.763 -240.764)" fill="#f7f7f7"/><path d="M497.55,290.8v26.539H483.5V290.8Z" transform="translate(-385.191 -244.81)" fill="#f7f7f7"/><rect width="2.785" height="2.785" transform="translate(109.068 38.902)" fill="#f7feff"/><rect width="2.785" height="2.785" transform="translate(109.068 33.881)" fill="#f7feff"/><rect width="2.785" height="2.785" transform="translate(109.068 28.86)" fill="#f7feff"/><path d="M490.309,420.914v3.333a1.747,1.747,0,0,1-1.73,1.772H483.6V419.1h4.979A1.785,1.785,0,0,1,490.309,420.914Zm-1.6,1.646a1.941,1.941,0,1,0-3.882,0,1.963,1.963,0,0,0,1.941,1.941A1.91,1.91,0,0,0,488.705,422.56Z" transform="translate(-385.249 -318.977)" fill="#f5f5f7"/><path d="M488.541,422.8a1.941,1.941,0,1,1-1.941,1.941A1.91,1.91,0,0,1,488.541,422.8Z" transform="translate(-386.983 -321.116)" fill="#f5f5f7"/><path d="M474.193,419.1v6.92h-2.532v-1.688a1.887,1.887,0,0,0,1.181-1.772,1.941,1.941,0,1,0-2.7,1.772v1.688H469.13a1.747,1.747,0,0,1-1.73-1.772v-3.333a1.757,1.757,0,0,1,1.73-1.814Z" transform="translate(-375.884 -318.977)" fill="#f5f5f7"/><path d="M475.04,424.641a1.952,1.952,0,0,1-1.181,1.772v.548h-1.477v-.548a1.887,1.887,0,0,1-1.181-1.772,1.92,1.92,0,1,1,3.84,0Z" transform="translate(-378.081 -321.058)" fill="#f5f5f7"/><path d="M475.535,433.939v.169a.487.487,0,0,1-.506.506h-.422a.487.487,0,0,1-.506-.506V432.8h1.477v1.139Z" transform="translate(-379.757 -326.896)" fill="#f5f5f7"/><rect width="20.084" height="50.884" transform="translate(74.048 21.814)" fill="#f7f7f7"/><path d="M325.108,223.5v58.859H273V223.5h3.586v55.1h44.935V223.5Z" transform="translate(-263.507 -205.906)" fill="#faf4ed"/><path d="M326.435,223.5v55.1h-4.557V233.289h-16.75V278.6h-8.692V261.938h2.278a2.449,2.449,0,0,0-2.447-2.447h-4.43V238.141H281.5V223.5Zm-23.122,9.62H323.65a2.449,2.449,0,0,0-2.447-2.447H305.761a2.321,2.321,0,0,0-1.73.717A2.492,2.492,0,0,0,303.314,233.12Z" transform="translate(-268.42 -205.906)" fill="#f7feff"/><path d="M353.537,242.947H333.2a2.39,2.39,0,0,1,.717-1.73,2.321,2.321,0,0,1,1.73-.717H351.09A2.449,2.449,0,0,1,353.537,242.947Z" transform="translate(-298.307 -215.733)" fill="#f7f7f7"/><rect width="16.75" height="45.315" transform="translate(36.665 27.383)" fill="#f7f7f7"/><path d="M298.615,311.247H281.4V308.8h14.767A2.449,2.449,0,0,1,298.615,311.247Z" transform="translate(-268.363 -255.215)" fill="#f7f7f7"/><path d="M296.394,314.6v16.666H281.5v-3h2.236V324.3H281.5V321.1h2.236v-3.966H281.5v-2.489h14.894Zm-2.321,13.67V324.3h-2.785v3.966Zm0-7.215v-3.966h-2.785v3.966Zm-5.147,7.215V324.3h-2.785v3.966Zm0-7.215v-3.966h-2.785v3.966Z" transform="translate(-268.42 -258.568)" fill="#f7f7f7"/><rect width="2.785" height="3.966" transform="translate(22.868 65.694)" fill="#f7feff"/><rect width="2.785" height="3.966" transform="translate(22.868 58.521)" fill="#f7feff"/><rect width="10.337" height="21.349" transform="translate(13.08 32.235)" fill="#f7f7f7"/><rect width="2.785" height="3.966" transform="translate(17.721 65.694)" fill="#f7feff"/><rect width="2.785" height="3.966" transform="translate(17.721 58.521)" fill="#f7feff"/><rect width="2.236" height="3.966" transform="translate(13.08 65.694)" fill="#f7feff"/><rect width="2.236" height="3.966" transform="translate(13.08 58.521)" fill="#f7feff"/></g><path d="M487.655,426.544a1.786,1.786,0,0,1,2.742-2.11l-.886-1.266L487.655,423l-.759.8-.3,1.013.338,1.1Z" transform="translate(-386.983 -321.168)" fill="#141414" opacity="0.04"/><path d="M472.055,426.544c-1.772-2.954,1.983-3.966,2.743-2.11l-.886-1.266L472.055,423l-.759.8-.3,1.013.338,1.1Z" transform="translate(-377.965 -321.168)" fill="#fff"/><rect width="0.675" height="5.949" transform="translate(98.309 100.186)" fill="#fff"/><path d="M481.142,419.438H469.075V419.1H468.4v7.215h.675V420.83a.756.756,0,0,1,.759-.759h11.35v-.633Z" transform="translate(-376.462 -318.914)" fill="#fff"/><path d="M474.186,427.691h0a1.455,1.455,0,0,0-.886-.591h0l.3.717.169,3.375h.464V427.9A.459.459,0,0,0,474.186,427.691Z" transform="translate(-379.295 -323.538)" fill="#fff"/><rect width="8.607" height="0.759" transform="translate(96.073 106.136)" fill="#141414" opacity="0.05"/><rect width="1.899" height="0.759" transform="translate(92.402 106.136)" fill="#141414" opacity="0.05"/><path d="M477.242,426.116a4.177,4.177,0,0,0,.506-2.616l.633,1.224-.169,1.392-.633.633-.3.464-.084-.717v-.38" transform="translate(-381.549 -321.457)" fill="#141414" opacity="0.03"/><path d="M296.25,216.43l-37.045-1.308a2.252,2.252,0,0,1-2.11-2.743h0V212h-2.067l-.928,4.852h1.983Z" transform="translate(-252.581 -199.195)" fill="#fff"/><path d="M296.25,204.93l-37.045-1.308a2.252,2.252,0,0,1-2.11-2.743h0v-.38h-2.067l-.928,4.852h1.983Z" transform="translate(-252.581 -192.547)" fill="#fff"/><path d="M296.25,193.43l-37.045-1.308a2.252,2.252,0,0,1-2.11-2.743h0V189h-2.067l-.928,4.852h1.983Z" transform="translate(-252.581 -185.899)" fill="#fff"/><path d="M327.4,189l92.782,2.363a3.292,3.292,0,0,1,3.122,2.489h2.152L424.19,189H327.4Z" transform="translate(-294.954 -185.899)" fill="#141414" opacity="0.04"/><path d="M327.4,200.5l92.782,2.363a3.292,3.292,0,0,1,3.122,2.489h2.152L424.19,200.5H327.4Z" transform="translate(-294.954 -192.547)" fill="#141414" opacity="0.04"/><path d="M327.4,212l92.782,2.363a3.292,3.292,0,0,1,3.122,2.489h2.152L424.19,212H327.4Z" transform="translate(-294.954 -199.195)" fill="#141414" opacity="0.04"/><path d="M471.183,181.742c-2.911,1.477-11.308,4.683-24.683,2.743l6.413.506h42.952V181.7H471.183Z" transform="translate(-363.802 -181.679)" fill="#141414" opacity="0.03"/><path d="M281.3,181.727a24.417,24.417,0,0,0-13.5,3.038H250.5v-3.038Z" transform="translate(-250.5 -181.663)" fill="#fff" opacity="0.5"/><path d="M391.78,181.713H388.7A18.479,18.479,0,0,1,391.78,181.713Z" transform="translate(-330.39 -181.65)" fill="#fff" opacity="0.5"/><path d="M343.9,181.8a23.851,23.851,0,0,0-10.422,3.038H327.4a23.291,23.291,0,0,1,10.422-3.038Z" transform="translate(-294.954 -181.737)" fill="#fff" opacity="0.5"/><path d="M406.18,181.713H403.1A18.479,18.479,0,0,1,406.18,181.713Z" transform="translate(-338.714 -181.65)" fill="#fff" opacity="0.5"/><path d="M324.528,223.8v54.893H279.592V223.8H278.2v55.357a.981.981,0,0,0,.97.97h45.906a.8.8,0,0,0,.8-.8V223.8Z" transform="translate(-266.513 -206.016)" fill="#fff" opacity="0.5"/><path d="M469.028,223.8v54.893H424.092V223.8H422.7v55.357a.981.981,0,0,0,.97.97h45.906a.8.8,0,0,0,.8-.8V223.8Z" transform="translate(-350.044 -206.016)" fill="#fff" opacity="0.5"/><path d="M290.793,223l-9.493,9.493V247.05l23.67-23.67Z" transform="translate(-268.305 -205.553)" fill="#fff" opacity="0.75"/><path d="M311.015,223.8,281.1,253.672v2.447l32.235-32.235Z" transform="translate(-268.189 -206.016)" fill="#fff" opacity="0.75"/><path d="M348.229,285.9,319.2,314.929h10.59l18.4-18.4Z" transform="translate(-290.214 -241.914)" fill="#fff" opacity="0.7"/><path d="M460.557,223.5,425.2,258.858v10.8l45.695-45.652Z" transform="translate(-351.49 -205.842)" fill="#fff" opacity="0.75"/><path d="M434.765,223.453l-8.565,8.523v4.261L439.238,223.2Z" transform="translate(-352.068 -205.669)" fill="#fff" opacity="0.75"/><path d="M483.942,270.3,448.5,305.784h17.721l18.48-18.523Z" transform="translate(-364.959 -232.896)" fill="#fff" opacity="0.7"/><rect width="14.894" height="1.772" transform="translate(13.08 56.179)" fill="#141414" opacity="0.05"/><rect width="16.75" height="1.772" transform="translate(36.665 27.488)" fill="#141414" opacity="0.05"/><rect width="14.008" height="1.772" transform="translate(98.309 46.222)" fill="#141414" opacity="0.05"/><path d="M354.251,266A44.306,44.306,0,0,1,337.5,291.062v11.983h16.666Z" transform="translate(-300.792 -230.411)" fill="#141414" opacity="0.02"/><path d="M281,269.8c1.772,6.118,6.329,9.325,10.548,7.51v8.945h-10.3Z" transform="translate(-268.131 -232.607)" fill="#141414" opacity="0.03"/><rect width="10.422" height="1.603" transform="translate(12.995 32.298)" fill="#fff" opacity="0.5"/><rect width="18.649" height="1.055" transform="translate(35.822 24.999)" fill="#fff" opacity="0.5"/><rect width="17.594" height="1.35" transform="translate(96.537 43.1)" fill="#fff" opacity="0.5"/><rect width="12.827" height="1.35" transform="translate(106.157 26.729)" fill="#fff" opacity="0.5"/><rect width="19.915" height="1.35" transform="translate(74.259 22.003)" fill="#fff" opacity="0.5"/><rect width="15.949" height="1.35" transform="translate(13.206 53.437)" fill="#fff" opacity="0.5"/><path d="M497.335,314.3a12.572,12.572,0,0,1-14.135,7.046v9.578h14.514Z" transform="translate(-385.018 -258.332)" fill="#141414" opacity="0.03"/><path d="M502.7,277.3" transform="translate(-396.29 -236.943)" fill="#141414"/><path d="M515.216,256.7c0,2.236-3.122,9.325-12.616,7.848v3.375h7.763v3h-1.814v26.835h6.666Z" transform="translate(-396.232 -225.034)" fill="#141414" opacity="0.03"/><g transform="translate(0 0.063)"><rect width="52.108" height="58.859" transform="translate(9.493 17.594)" stroke-width="3" stroke="#dcdee8" stroke-linecap="round" stroke-linejoin="round" stroke-miterlimit="10" fill="none"/><rect width="132.063" height="3.038" stroke-width="3" stroke="#dcdee8" stroke-linecap="round" stroke-linejoin="round" stroke-miterlimit="10" fill="none"/><rect width="44.935" height="55.104" transform="translate(13.08 17.594)" stroke-width="3" stroke="#dcdee8" stroke-linecap="round" stroke-linejoin="round" stroke-miterlimit="10" fill="none"/><rect width="44.935" height="55.104" transform="translate(74.048 17.594)" stroke-width="3" stroke="#dcdee8" stroke-linecap="round" stroke-linejoin="round" stroke-miterlimit="10" fill="none"/><rect width="52.108" height="58.859" transform="translate(122.59 76.453) rotate(180)" stroke-width="3" stroke="#dcdee8" stroke-linecap="round" stroke-linejoin="round" stroke-miterlimit="10" fill="none"/><line y2="22.489" transform="translate(126.451 17.594)" stroke-width="3" stroke="#dcdee8" stroke-linecap="round" stroke-linejoin="round" stroke-miterlimit="10" fill="none"/><line y2="2.953" transform="translate(126.451 40.083)" stroke-width="6" stroke="#dcdee8" stroke-linecap="round" stroke-linejoin="round" stroke-miterlimit="10" fill="none"/><line y2="1.139" transform="translate(100.672 48.648)" stroke-width="3" stroke="#dcdee8" stroke-linecap="round" stroke-linejoin="round" stroke-miterlimit="10" fill="none"/><line y2="1.139" transform="translate(103.794 48.648)" stroke-width="3" stroke="#dcdee8" stroke-linecap="round" stroke-linejoin="round" stroke-miterlimit="10" fill="none"/><line y2="1.139" transform="translate(106.916 48.648)" stroke-width="3" stroke="#dcdee8" stroke-linecap="round" stroke-linejoin="round" stroke-miterlimit="10" fill="none"/><line y2="1.139" transform="translate(109.996 48.648)" stroke-width="3" stroke="#dcdee8" stroke-linecap="round" stroke-linejoin="round" stroke-miterlimit="10" fill="none"/><path d="M383.141,193.852H254.2L255.466,189H381.875Z" transform="translate(-252.639 -185.962)" fill="none" stroke="#dcdee8" stroke-linecap="round" stroke-linejoin="round" stroke-miterlimit="10" stroke-width="3"/><path d="M383.141,205.352H254.2l1.266-4.852H381.875Z" transform="translate(-252.639 -192.61)" fill="none" stroke="#dcdee8" stroke-linecap="round" stroke-linejoin="round" stroke-miterlimit="10" stroke-width="3"/><path d="M383.141,216.852H254.2L255.466,212H381.875Z" transform="translate(-252.639 -199.258)" fill="none" stroke="#dcdee8" stroke-linecap="round" stroke-linejoin="round" stroke-miterlimit="10" stroke-width="3"/><path d="M502.7,261.286V245h12.573v46.032H502.7v-.169" transform="translate(-396.29 -218.334)" fill="none" stroke="#dcdee8" stroke-linecap="round" stroke-linejoin="round" stroke-miterlimit="10" stroke-width="3"/><rect width="20.084" height="50.884" transform="translate(74.048 21.814)" stroke-width="3" stroke="#dcdee8" stroke-linecap="round" stroke-linejoin="round" stroke-miterlimit="10" fill="none"/><rect width="14.008" height="26.539" transform="translate(98.351 45.99)" stroke-width="3" stroke="#dcdee8" stroke-linecap="round" stroke-linejoin="round" stroke-miterlimit="10" fill="none"/><rect width="17.637" height="2.953" transform="translate(96.537 43.036)" stroke-width="3" stroke="#dcdee8" stroke-linecap="round" stroke-linejoin="round" stroke-miterlimit="10" fill="none"/><path d="M353.537,243.347H333.2a2.449,2.449,0,0,1,2.447-2.447H351.09a2.449,2.449,0,0,1,2.447,2.447Z" transform="translate(-298.307 -215.964)" fill="none" stroke="#dcdee8" stroke-linecap="round" stroke-linejoin="round" stroke-miterlimit="10" stroke-width="3"/><path d="M281.684,308.8h14.641a2.449,2.449,0,0,1,2.447,2.447H281.6" transform="translate(-268.478 -255.215)" fill="none" stroke="#dcdee8" stroke-linecap="round" stroke-linejoin="round" stroke-miterlimit="10" stroke-width="3"/><line y2="3.122" transform="translate(108.646 23.543)" stroke-width="3" stroke="#dcdee8" stroke-linecap="round" stroke-linejoin="round" stroke-miterlimit="10" fill="none"/><line y2="1.941" transform="translate(111.093 24.725)" stroke-width="3" stroke="#dcdee8" stroke-linecap="round" stroke-linejoin="round" stroke-miterlimit="10" fill="none"/><rect width="2.785" height="2.785" transform="translate(109.068 28.86)" stroke-width="1.5" stroke="#dcdee8" stroke-linecap="round" stroke-linejoin="round" stroke-miterlimit="10" fill="none"/><rect width="2.785" height="2.785" transform="translate(114.258 28.86)" stroke-width="1.5" stroke="#dcdee8" stroke-linecap="round" stroke-linejoin="round" stroke-miterlimit="10" fill="none"/><rect width="2.785" height="2.785" transform="translate(109.068 33.881)" stroke-width="1.5" stroke="#dcdee8" stroke-linecap="round" stroke-linejoin="round" stroke-miterlimit="10" fill="none"/><rect width="2.785" height="2.785" transform="translate(114.258 33.881)" stroke-width="1.5" stroke="#dcdee8" stroke-linecap="round" stroke-linejoin="round" stroke-miterlimit="10" fill="none"/><rect width="2.785" height="2.785" transform="translate(109.068 38.902)" stroke-width="1.5" stroke="#dcdee8" stroke-linecap="round" stroke-linejoin="round" stroke-miterlimit="10" fill="none"/><rect width="2.785" height="2.785" transform="translate(114.258 38.902)" stroke-width="1.5" stroke="#dcdee8" stroke-linecap="round" stroke-linejoin="round" stroke-miterlimit="10" fill="none"/><rect width="2.785" height="3.966" transform="translate(17.721 58.521)" stroke-width="1.5" stroke="#dcdee8" stroke-linecap="round" stroke-linejoin="round" stroke-miterlimit="10" fill="none"/><rect width="2.785" height="3.966" transform="translate(22.868 58.521)" stroke-width="1.5" stroke="#dcdee8" stroke-linecap="round" stroke-linejoin="round" stroke-miterlimit="10" fill="none"/><rect width="2.785" height="3.966" transform="translate(17.721 65.736)" stroke-width="1.5" stroke="#dcdee8" stroke-linecap="round" stroke-linejoin="round" stroke-miterlimit="10" fill="none"/><rect width="2.785" height="3.966" transform="translate(22.868 65.736)" stroke-width="1.5" stroke="#dcdee8" stroke-linecap="round" stroke-linejoin="round" stroke-miterlimit="10" fill="none"/><rect width="2.236" height="3.966" transform="translate(13.08 58.521)" stroke-width="1.5" stroke="#dcdee8" stroke-linecap="round" stroke-linejoin="round" stroke-miterlimit="10" fill="none"/><rect width="2.236" height="3.966" transform="translate(13.08 65.736)" stroke-width="1.5" stroke="#dcdee8" stroke-linecap="round" stroke-linejoin="round" stroke-miterlimit="10" fill="none"/><rect width="2.785" height="2.785" transform="translate(114.258 43.923)" stroke-width="1.5" stroke="#dcdee8" stroke-linecap="round" stroke-linejoin="round" stroke-miterlimit="10" fill="none"/><rect width="2.785" height="2.785" transform="translate(114.258 48.943)" stroke-width="1.5" stroke="#dcdee8" stroke-linecap="round" stroke-linejoin="round" stroke-miterlimit="10" fill="none"/><rect width="2.785" height="2.785" transform="translate(114.258 53.922)" stroke-width="1.5" stroke="#dcdee8" stroke-linecap="round" stroke-linejoin="round" stroke-miterlimit="10" fill="none"/><rect width="2.785" height="2.785" transform="translate(114.258 58.943)" stroke-width="1.5" stroke="#dcdee8" stroke-linecap="round" stroke-linejoin="round" stroke-miterlimit="10" fill="none"/><rect width="2.785" height="2.785" transform="translate(114.258 63.964)" stroke-width="1.5" stroke="#dcdee8" stroke-linecap="round" stroke-linejoin="round" stroke-miterlimit="10" fill="none"/><line y2="1.139" transform="translate(100.672 52.741)" stroke-width="3" stroke="#dcdee8" stroke-linecap="round" stroke-linejoin="round" stroke-miterlimit="10" fill="none"/><line y2="1.139" transform="translate(103.794 52.741)" stroke-width="3" stroke="#dcdee8" stroke-linecap="round" stroke-linejoin="round" stroke-miterlimit="10" fill="none"/><line y2="1.139" transform="translate(106.916 52.741)" stroke-width="3" stroke="#dcdee8" stroke-linecap="round" stroke-linejoin="round" stroke-miterlimit="10" fill="none"/><line y2="1.139" transform="translate(109.996 52.741)" stroke-width="3" stroke="#dcdee8" stroke-linecap="round" stroke-linejoin="round" stroke-miterlimit="10" fill="none"/><line y2="1.139" transform="translate(100.672 56.833)" stroke-width="3" stroke="#dcdee8" stroke-linecap="round" stroke-linejoin="round" stroke-miterlimit="10" fill="none"/><line y2="1.139" transform="translate(103.794 56.833)" stroke-width="3" stroke="#dcdee8" stroke-linecap="round" stroke-linejoin="round" stroke-miterlimit="10" fill="none"/><line y2="1.139" transform="translate(106.916 56.833)" stroke-width="3" stroke="#dcdee8" stroke-linecap="round" stroke-linejoin="round" stroke-miterlimit="10" fill="none"/><line y2="1.139" transform="translate(109.996 56.833)" stroke-width="3" stroke="#dcdee8" stroke-linecap="round" stroke-linejoin="round" stroke-miterlimit="10" fill="none"/><line y2="1.139" transform="translate(100.672 60.968)" stroke-width="3" stroke="#dcdee8" stroke-linecap="round" stroke-linejoin="round" stroke-miterlimit="10" fill="none"/><line y2="1.139" transform="translate(103.794 60.968)" stroke-width="3" stroke="#dcdee8" stroke-linecap="round" stroke-linejoin="round" stroke-miterlimit="10" fill="none"/><line y2="1.139" transform="translate(106.916 60.968)" stroke-width="3" stroke="#dcdee8" stroke-linecap="round" stroke-linejoin="round" stroke-miterlimit="10" fill="none"/><line y2="1.139" transform="translate(109.996 60.968)" stroke-width="3" stroke="#dcdee8" stroke-linecap="round" stroke-linejoin="round" stroke-miterlimit="10" fill="none"/><line y2="1.139" transform="translate(100.672 65.061)" stroke-width="3" stroke="#dcdee8" stroke-linecap="round" stroke-linejoin="round" stroke-miterlimit="10" fill="none"/><line y2="1.139" transform="translate(103.794 65.061)" stroke-width="3" stroke="#dcdee8" stroke-linecap="round" stroke-linejoin="round" stroke-miterlimit="10" fill="none"/><line y2="1.139" transform="translate(106.916 65.061)" stroke-width="3" stroke="#dcdee8" stroke-linecap="round" stroke-linejoin="round" stroke-miterlimit="10" fill="none"/><line y2="1.139" transform="translate(109.996 65.061)" stroke-width="3" stroke="#dcdee8" stroke-linecap="round" stroke-linejoin="round" stroke-miterlimit="10" fill="none"/><line y2="1.139" transform="translate(100.672 69.154)" stroke-width="3" stroke="#dcdee8" stroke-linecap="round" stroke-linejoin="round" stroke-miterlimit="10" fill="none"/><line y2="1.139" transform="translate(103.794 69.154)" stroke-width="3" stroke="#dcdee8" stroke-linecap="round" stroke-linejoin="round" stroke-miterlimit="10" fill="none"/><line y2="1.139" transform="translate(106.916 69.154)" stroke-width="3" stroke="#dcdee8" stroke-linecap="round" stroke-linejoin="round" stroke-miterlimit="10" fill="none"/><line y2="1.139" transform="translate(109.996 69.154)" stroke-width="3" stroke="#dcdee8" stroke-linecap="round" stroke-linejoin="round" stroke-miterlimit="10" fill="none"/><line y2="0.211" transform="translate(77.677 25.527)" stroke-width="4" stroke="#dcdee8" stroke-linecap="round" stroke-linejoin="round" stroke-miterlimit="10" fill="none"/><line y2="0.211" transform="translate(82.065 25.527)" stroke-width="4" stroke="#dcdee8" stroke-linecap="round" stroke-linejoin="round" stroke-miterlimit="10" fill="none"/><line y2="0.211" transform="translate(86.453 25.527)" stroke-width="4" stroke="#dcdee8" stroke-linecap="round" stroke-linejoin="round" stroke-miterlimit="10" fill="none"/><line y2="0.211" transform="translate(90.841 25.527)" stroke-width="4" stroke="#dcdee8" stroke-linecap="round" stroke-linejoin="round" stroke-miterlimit="10" fill="none"/><line y2="0.211" transform="translate(77.677 30.379)" stroke-width="4" stroke="#dcdee8" stroke-linecap="round" stroke-linejoin="round" stroke-miterlimit="10" fill="none"/><line y2="0.211" transform="translate(82.065 30.379)" stroke-width="4" stroke="#dcdee8" stroke-linecap="round" stroke-linejoin="round" stroke-miterlimit="10" fill="none"/><line y2="0.211" transform="translate(86.453 30.379)" stroke-width="4" stroke="#dcdee8" stroke-linecap="round" stroke-linejoin="round" stroke-miterlimit="10" fill="none"/><line y2="0.211" transform="translate(90.841 30.379)" stroke-width="4" stroke="#dcdee8" stroke-linecap="round" stroke-linejoin="round" stroke-miterlimit="10" fill="none"/><line y2="0.211" transform="translate(77.677 35.231)" stroke-width="4" stroke="#dcdee8" stroke-linecap="round" stroke-linejoin="round" stroke-miterlimit="10" fill="none"/><line y2="0.211" transform="translate(82.065 35.231)" stroke-width="4" stroke="#dcdee8" stroke-linecap="round" stroke-linejoin="round" stroke-miterlimit="10" fill="none"/><line y2="0.211" transform="translate(86.453 35.231)" stroke-width="4" stroke="#dcdee8" stroke-linecap="round" stroke-linejoin="round" stroke-miterlimit="10" fill="none"/><line y2="0.211" transform="translate(90.841 35.231)" stroke-width="4" stroke="#dcdee8" stroke-linecap="round" stroke-linejoin="round" stroke-miterlimit="10" fill="none"/><line y2="0.211" transform="translate(77.677 40.083)" stroke-width="4" stroke="#dcdee8" stroke-linecap="round" stroke-linejoin="round" stroke-miterlimit="10" fill="none"/><line y2="0.211" transform="translate(82.065 40.083)" stroke-width="4" stroke="#dcdee8" stroke-linecap="round" stroke-linejoin="round" stroke-miterlimit="10" fill="none"/><line y2="0.211" transform="translate(86.453 40.083)" stroke-width="4" stroke="#dcdee8" stroke-linecap="round" stroke-linejoin="round" stroke-miterlimit="10" fill="none"/><line y2="0.211" transform="translate(90.841 40.083)" stroke-width="4" stroke="#dcdee8" stroke-linecap="round" stroke-linejoin="round" stroke-miterlimit="10" fill="none"/><line y2="0.211" transform="translate(77.677 44.935)" stroke-width="4" stroke="#dcdee8" stroke-linecap="round" stroke-linejoin="round" stroke-miterlimit="10" fill="none"/><line y2="0.211" transform="translate(82.065 44.935)" stroke-width="4" stroke="#dcdee8" stroke-linecap="round" stroke-linejoin="round" stroke-miterlimit="10" fill="none"/><line y2="0.211" transform="translate(86.453 44.935)" stroke-width="4" stroke="#dcdee8" stroke-linecap="round" stroke-linejoin="round" stroke-miterlimit="10" fill="none"/><line y2="0.211" transform="translate(90.841 44.935)" stroke-width="4" stroke="#dcdee8" stroke-linecap="round" stroke-linejoin="round" stroke-miterlimit="10" fill="none"/><line y2="0.211" transform="translate(77.677 49.787)" stroke-width="4" stroke="#dcdee8" stroke-linecap="round" stroke-linejoin="round" stroke-miterlimit="10" fill="none"/><line y2="0.211" transform="translate(82.065 49.787)" stroke-width="4" stroke="#dcdee8" stroke-linecap="round" stroke-linejoin="round" stroke-miterlimit="10" fill="none"/><line y2="0.127" transform="translate(16.033 35.4)" stroke-width="4" stroke="#dcdee8" stroke-linecap="round" stroke-linejoin="round" stroke-miterlimit="10" fill="none"/><line y2="0.127" transform="translate(20.59 35.4)" stroke-width="4" stroke="#dcdee8" stroke-linecap="round" stroke-linejoin="round" stroke-miterlimit="10" fill="none"/><line y2="0.127" transform="translate(16.033 38.48)" stroke-width="4" stroke="#dcdee8" stroke-linecap="round" stroke-linejoin="round" stroke-miterlimit="10" fill="none"/><line y2="0.127" transform="translate(20.59 38.48)" stroke-width="4" stroke="#dcdee8" stroke-linecap="round" stroke-linejoin="round" stroke-miterlimit="10" fill="none"/><line y2="0.127" transform="translate(16.033 41.56)" stroke-width="4" stroke="#dcdee8" stroke-linecap="round" stroke-linejoin="round" stroke-miterlimit="10" fill="none"/><line y2="0.127" transform="translate(20.59 41.56)" stroke-width="4" stroke="#dcdee8" stroke-linecap="round" stroke-linejoin="round" stroke-miterlimit="10" fill="none"/><line y2="0.127" transform="translate(16.033 44.64)" stroke-width="4" stroke="#dcdee8" stroke-linecap="round" stroke-linejoin="round" stroke-miterlimit="10" fill="none"/><line y2="0.127" transform="translate(20.59 44.64)" stroke-width="4" stroke="#dcdee8" stroke-linecap="round" stroke-linejoin="round" stroke-miterlimit="10" fill="none"/><line y2="0.127" transform="translate(16.033 47.72)" stroke-width="4" stroke="#dcdee8" stroke-linecap="round" stroke-linejoin="round" stroke-miterlimit="10" fill="none"/><line y2="0.127" transform="translate(20.59 47.72)" stroke-width="4" stroke="#dcdee8" stroke-linecap="round" stroke-linejoin="round" stroke-miterlimit="10" fill="none"/><line y2="0.127" transform="translate(16.033 50.8)" stroke-width="4" stroke="#dcdee8" stroke-linecap="round" stroke-linejoin="round" stroke-miterlimit="10" fill="none"/><line y2="0.127" transform="translate(20.59 50.8)" stroke-width="4" stroke="#dcdee8" stroke-linecap="round" stroke-linejoin="round" stroke-miterlimit="10" fill="none"/><line y2="0.211" transform="translate(86.453 49.787)" stroke-width="4" stroke="#dcdee8" stroke-linecap="round" stroke-linejoin="round" stroke-miterlimit="10" fill="none"/><line y2="0.211" transform="translate(90.841 49.787)" stroke-width="4" stroke="#dcdee8" stroke-linecap="round" stroke-linejoin="round" stroke-miterlimit="10" fill="none"/><line y2="0.211" transform="translate(77.677 59.618)" stroke-width="4" stroke="#dcdee8" stroke-linecap="round" stroke-linejoin="round" stroke-miterlimit="10" fill="none"/><line y2="0.211" transform="translate(82.065 59.618)" stroke-width="4" stroke="#dcdee8" stroke-linecap="round" stroke-linejoin="round" stroke-miterlimit="10" fill="none"/><line y2="0.211" transform="translate(86.453 59.618)" stroke-width="4" stroke="#dcdee8" stroke-linecap="round" stroke-linejoin="round" stroke-miterlimit="10" fill="none"/><line y2="0.211" transform="translate(90.841 59.618)" stroke-width="4" stroke="#dcdee8" stroke-linecap="round" stroke-linejoin="round" stroke-miterlimit="10" fill="none"/><line y2="0.211" transform="translate(77.677 64.47)" stroke-width="4" stroke="#dcdee8" stroke-linecap="round" stroke-linejoin="round" stroke-miterlimit="10" fill="none"/><line y2="0.211" transform="translate(82.065 64.47)" stroke-width="4" stroke="#dcdee8" stroke-linecap="round" stroke-linejoin="round" stroke-miterlimit="10" fill="none"/><line y2="0.211" transform="translate(86.453 64.47)" stroke-width="4" stroke="#dcdee8" stroke-linecap="round" stroke-linejoin="round" stroke-miterlimit="10" fill="none"/><line y2="0.211" transform="translate(90.841 64.47)" stroke-width="4" stroke="#dcdee8" stroke-linecap="round" stroke-linejoin="round" stroke-miterlimit="10" fill="none"/><line y2="0.211" transform="translate(77.677 54.639)" stroke-width="4" stroke="#dcdee8" stroke-linecap="round" stroke-linejoin="round" stroke-miterlimit="10" fill="none"/><line y2="0.211" transform="translate(82.065 54.639)" stroke-width="4" stroke="#dcdee8" stroke-linecap="round" stroke-linejoin="round" stroke-miterlimit="10" fill="none"/><line y2="0.211" transform="translate(86.453 54.639)" stroke-width="4" stroke="#dcdee8" stroke-linecap="round" stroke-linejoin="round" stroke-miterlimit="10" fill="none"/><line y2="0.211" transform="translate(90.841 54.639)" stroke-width="4" stroke="#dcdee8" stroke-linecap="round" stroke-linejoin="round" stroke-miterlimit="10" fill="none"/><line y2="0.211" transform="translate(77.677 59.492)" stroke-width="4" stroke="#dcdee8" stroke-linecap="round" stroke-linejoin="round" stroke-miterlimit="10" fill="none"/><line y2="0.211" transform="translate(82.065 59.492)" stroke-width="4" stroke="#dcdee8" stroke-linecap="round" stroke-linejoin="round" stroke-miterlimit="10" fill="none"/><line y2="0.211" transform="translate(86.453 59.492)" stroke-width="4" stroke="#dcdee8" stroke-linecap="round" stroke-linejoin="round" stroke-miterlimit="10" fill="none"/><line y2="0.211" transform="translate(90.841 59.492)" stroke-width="4" stroke="#dcdee8" stroke-linecap="round" stroke-linejoin="round" stroke-miterlimit="10" fill="none"/><line y2="0.211" transform="translate(77.677 69.322)" stroke-width="4" stroke="#dcdee8" stroke-linecap="round" stroke-linejoin="round" stroke-miterlimit="10" fill="none"/><line y2="0.211" transform="translate(82.065 69.322)" stroke-width="4" stroke="#dcdee8" stroke-linecap="round" stroke-linejoin="round" stroke-miterlimit="10" fill="none"/><line y2="0.211" transform="translate(86.453 69.322)" stroke-width="4" stroke="#dcdee8" stroke-linecap="round" stroke-linejoin="round" stroke-miterlimit="10" fill="none"/><line y2="0.211" transform="translate(90.841 69.322)" stroke-width="4" stroke="#dcdee8" stroke-linecap="round" stroke-linejoin="round" stroke-miterlimit="10" fill="none"/><line x1="0.633" y2="2.447" transform="translate(4.219 3.038)" stroke-width="1.5" stroke="#dcdee8" stroke-linecap="round" stroke-linejoin="round" stroke-miterlimit="10" fill="none"/><line x1="0.464" y2="1.688" transform="translate(30.758 12.742)" stroke-width="1.5" stroke="#dcdee8" stroke-linecap="round" stroke-linejoin="round" stroke-miterlimit="10" fill="none"/><line x1="0.211" y2="0.802" transform="translate(32.446 12.742)" stroke-width="1.5" stroke="#dcdee8" stroke-linecap="round" stroke-linejoin="round" stroke-miterlimit="10" fill="none"/><line x1="0.422" y2="1.772" transform="translate(5.696 3.038)" stroke-width="1.5" stroke="#dcdee8" stroke-linecap="round" stroke-linejoin="round" stroke-miterlimit="10" fill="none"/><path d="M337.4,292.015V246.7h16.793v45.146" transform="translate(-300.735 -219.317)" fill="none" stroke="#dcdee8" stroke-linecap="round" stroke-linejoin="round" stroke-miterlimit="10" stroke-width="3"/><path d="M360.4,354.1" transform="translate(-314.03 -281.402)" fill="none" stroke="#dcdee8" stroke-linecap="round" stroke-linejoin="round" stroke-miterlimit="10" stroke-width="3"/><line y2="16.708" transform="translate(27.974 56.032)" stroke-width="3" stroke="#dcdee8" stroke-linecap="round" stroke-linejoin="round" stroke-miterlimit="10" fill="none"/><path d="M291.837,279.549V258.2H281.5v21.349" transform="translate(-268.42 -225.965)" fill="none" stroke="#dcdee8" stroke-linecap="round" stroke-linejoin="round" stroke-miterlimit="10" stroke-width="3"/><line x2="12.658" transform="translate(38.733 30.168)" stroke-width="1.5" stroke="#dcdee8" stroke-linecap="round" stroke-linejoin="round" stroke-miterlimit="10" fill="none"/><line x2="12.658" transform="translate(38.733 33.206)" stroke-width="1.5" stroke="#dcdee8" stroke-linecap="round" stroke-linejoin="round" stroke-miterlimit="10" fill="none"/><line x2="12.658" transform="translate(38.733 36.286)" stroke-width="1.5" stroke="#dcdee8" stroke-linecap="round" stroke-linejoin="round" stroke-miterlimit="10" fill="none"/><line x2="12.658" transform="translate(38.733 39.324)" stroke-width="1.5" stroke="#dcdee8" stroke-linecap="round" stroke-linejoin="round" stroke-miterlimit="10" fill="none"/><line x2="12.658" transform="translate(38.733 42.361)" stroke-width="1.5" stroke="#dcdee8" stroke-linecap="round" stroke-linejoin="round" stroke-miterlimit="10" fill="none"/><line x2="12.658" transform="translate(38.733 45.441)" stroke-width="1.5" stroke="#dcdee8" stroke-linecap="round" stroke-linejoin="round" stroke-miterlimit="10" fill="none"/><line x2="12.658" transform="translate(38.733 48.479)" stroke-width="1.5" stroke="#dcdee8" stroke-linecap="round" stroke-linejoin="round" stroke-miterlimit="10" fill="none"/><line x2="12.658" transform="translate(38.733 51.559)" stroke-width="1.5" stroke="#dcdee8" stroke-linecap="round" stroke-linejoin="round" stroke-miterlimit="10" fill="none"/><line x2="12.658" transform="translate(38.733 54.597)" stroke-width="1.5" stroke="#dcdee8" stroke-linecap="round" stroke-linejoin="round" stroke-miterlimit="10" fill="none"/><line x2="12.658" transform="translate(38.733 57.635)" stroke-width="1.5" stroke="#dcdee8" stroke-linecap="round" stroke-linejoin="round" stroke-miterlimit="10" fill="none"/><line x2="12.658" transform="translate(38.733 60.715)" stroke-width="1.5" stroke="#dcdee8" stroke-linecap="round" stroke-linejoin="round" stroke-miterlimit="10" fill="none"/><line x2="12.658" transform="translate(38.733 63.753)" stroke-width="1.5" stroke="#dcdee8" stroke-linecap="round" stroke-linejoin="round" stroke-miterlimit="10" fill="none"/><line x2="12.658" transform="translate(38.733 66.791)" stroke-width="1.5" stroke="#dcdee8" stroke-linecap="round" stroke-linejoin="round" stroke-miterlimit="10" fill="none"/><line x2="12.658" transform="translate(38.733 69.871)" stroke-width="1.5" stroke="#dcdee8" stroke-linecap="round" stroke-linejoin="round" stroke-miterlimit="10" fill="none"/><line y2="1.856" transform="translate(20.59 30.379)" stroke-width="3" stroke="#dcdee8" stroke-linecap="round" stroke-linejoin="round" stroke-miterlimit="10" fill="none"/><line x1="5.612" y2="5.612" transform="translate(22.362 21.814)" stroke-width="1.5" stroke="#dcdee8" stroke-linecap="round" stroke-linejoin="round" stroke-miterlimit="10" fill="none"/><line x1="4.05" y2="4.05" transform="translate(28.564 20.126)" stroke-width="1.5" stroke="#dcdee8" stroke-linecap="round" stroke-linejoin="round" stroke-miterlimit="10" fill="none"/><line x1="0.591" y2="0.591" transform="translate(26.919 25.231)" stroke-width="1.5" stroke="#dcdee8" stroke-linecap="round" stroke-linejoin="round" stroke-miterlimit="10" fill="none"/><line y2="0.295" transform="translate(120.966 21.814)" stroke-width="1.5" stroke="#dcdee8" stroke-linecap="round" stroke-linejoin="round" stroke-miterlimit="10" fill="none"/><line y2="2.953" transform="translate(120.966 17.594)" stroke-width="1.5" stroke="#dcdee8" stroke-linecap="round" stroke-linejoin="round" stroke-miterlimit="10" fill="none"/><line x2="0.295" y2="1.646" transform="translate(126.536 7.89)" stroke-width="1.5" stroke="#dcdee8" stroke-linecap="round" stroke-linejoin="round" stroke-miterlimit="10" fill="none"/><line x2="0.042" transform="translate(100.798 103.583)" stroke-width="2" stroke="#dcdee8" stroke-linecap="round" stroke-linejoin="round" stroke-miterlimit="10" fill="none"/><ellipse cx="1.941" cy="1.941" rx="1.941" ry="1.941" transform="translate(99.617 101.642)" stroke-width="1.5" stroke="#dcdee8" stroke-linecap="round" stroke-linejoin="round" stroke-miterlimit="10" fill="none"/><line transform="translate(102.233 103.583)" stroke-width="2" stroke="#dcdee8" stroke-linecap="round" stroke-linejoin="round" stroke-miterlimit="10" fill="none"/><path d="M471.777,426.02h7.51a1.747,1.747,0,0,0,1.73-1.772v-3.333a1.785,1.785,0,0,0-1.73-1.814H469.33a1.757,1.757,0,0,0-1.73,1.814v3.333a1.721,1.721,0,0,0,1.73,1.772h.8" transform="translate(-376 -318.977)" fill="none" stroke="#dcdee8" stroke-linejoin="round" stroke-miterlimit="10" stroke-width="3"/><path d="M474.982,424.641a1.941,1.941,0,1,0-2.7,1.772v1.857a.487.487,0,0,0,.506.506h.422a.487.487,0,0,0,.506-.506v-1.857A1.863,1.863,0,0,0,474.982,424.641Z" transform="translate(-378.023 -321.058)" fill="none" stroke="#dcdee8" stroke-linecap="round" stroke-linejoin="round" stroke-miterlimit="10" stroke-width="1.5"/><path d="M473.3,427.8a2.663,2.663,0,0,1,.3.422v1.139" transform="translate(-379.295 -324.006)" fill="none" stroke="#dcdee8" stroke-linecap="round" stroke-linejoin="round" stroke-miterlimit="10" stroke-width="1.5"/><path d="M477.8,427.8a2.663,2.663,0,0,0-.3.422v1.139" transform="translate(-381.723 -324.006)" fill="none" stroke="#dcdee8" stroke-linecap="round" stroke-linejoin="round" stroke-miterlimit="10" stroke-width="1.5"/><path d="M450.38,414.077a9.24,9.24,0,1,1-18.48,0V397.2" transform="translate(-355.363 -306.317)" fill="none" stroke="#dcdee8" stroke-linejoin="round" stroke-miterlimit="10" stroke-width="3"/><line x2="1.477" transform="translate(94.301 105.903)" stroke-width="1.5" stroke="#dcdee8" stroke-linecap="round" stroke-linejoin="round" stroke-miterlimit="10" fill="none"/><line y2="6.92" transform="translate(98.309 100.123)" stroke-width="1.5" stroke="#dcdee8" stroke-linecap="round" stroke-linejoin="round" stroke-miterlimit="10" fill="none"/></g></g><g transform="translate(0 34.028)"><g transform="translate(8.649 0)"><path d="M375.338,363a2.539,2.539,0,0,1,2.531,2.531,2.381,2.381,0,0,1-.76,1.772,2.526,2.526,0,0,1-1.772.76H222.432a2.539,2.539,0,0,1-2.532-2.532,2.381,2.381,0,0,1,.759-1.772,2.527,2.527,0,0,1,1.772-.759H375.338Z" transform="translate(-219.9 -320.512)" fill="#ebb886"/><path d="M567.932,375v39.745a2.616,2.616,0,1,1-5.232,0V375Z" transform="translate(-418.064 -327.449)" fill="#ebb886"/><path d="M562.328,340.3l-.253,2.953h-7.763L554.1,340.3Z" transform="translate(-413.092 -307.39)" fill="#48ffff"/><path d="M562.364,347.3l-.169,1.941h-7.426L554.6,347.3Z" transform="translate(-413.381 -311.436)" fill="#d2fffe"/><path d="M562.484,351.9l-.211,2.869a1.8,1.8,0,0,1-1.6,1.814h-3.755a1.77,1.77,0,0,1-1.6-1.814L555.1,351.9Z" transform="translate(-413.67 -314.095)" fill="#48ffff"/><rect width="96.199" height="9.325" transform="translate(48.479 47.551)" fill="#ebb886"/><path d="M508.293,358.375H498.8c.085-1.9,2.194-3.375,4.726-3.375S508.209,356.477,508.293,358.375Z" transform="translate(-381.125 -315.887)" fill="#e2e2e2"/><path d="M422.433,328v3.671a3.385,3.385,0,0,1-3.375,3.375h-1.941l-.253-3.375-8.059.591.211,2.743-.38.042H383.109l.211-1.435-7.468-1.013-.338,2.447h-1.139A3.385,3.385,0,0,1,371,331.671V328Z" transform="translate(-307.247 -300.28)" fill="#e2e2e2"/><path d="M422.375,265.718v24.3H370.9V265.675a3.385,3.385,0,0,1,3.375-3.375H419A3.45,3.45,0,0,1,422.375,265.718ZM419.886,287.7V266.224a1.6,1.6,0,0,0-1.6-1.6H374.908a1.6,1.6,0,0,0-1.6,1.6V287.7Z" transform="translate(-307.189 -262.3)" fill="#e2e2e2"/><path d="M423.239,269.4v21.476H376.7V269.4a1.6,1.6,0,0,1,1.6-1.6h43.374A1.652,1.652,0,0,1,423.239,269.4Z" transform="translate(-310.542 -265.479)" fill="#51576b"/><path d="M473.532,349.6a1.606,1.606,0,0,1-1.477,1.73l-6.455.464a1.606,1.606,0,0,0,1.477-1.73l3.249-.253,1.6-.127Z" transform="translate(-361.933 -312.766)" fill="#d1f7c9"/><path d="M468.854,340.724l.127,1.6-1.6.127-3.249.253a1.608,1.608,0,1,1-3.207.253l-.211-2.827-.211-2.742,8.059-.591.253,3.375Z" transform="translate(-358.984 -305.367)" fill="#d1f7c9"/><path d="M427.439,352.421H403.6a2.48,2.48,0,0,1,2.278-2.658,5.106,5.106,0,0,0,4.262-2.11,7.382,7.382,0,0,0,.844-2.954h9.071c.675,3.08,2.236,5.063,5.105,5.063a2.154,2.154,0,0,1,1.6.759A2.893,2.893,0,0,1,427.439,352.421Z" transform="translate(-326.092 -309.933)" fill="#e2e2e2"/><path d="M388.885,339.855l-.211,1.435L388.168,345a1.492,1.492,0,0,1-2.954-.422l-3.038-.422-1.477-.211.211-1.477.169-1.224.338-2.447Z" transform="translate(-312.854 -306.523)" fill="#fff5de"/><path d="M384.534,353.189l-5.991-.8a1.485,1.485,0,0,1-1.266-1.688l1.477.211,1.477.211,3.038.422A1.46,1.46,0,0,0,384.534,353.189Z" transform="translate(-310.865 -313.402)" fill="#fff5de"/><path d="M336.826,335.2v7.848a3.475,3.475,0,0,1-3.46,3.46H330.16a3.476,3.476,0,0,1-3.46-3.46V335.2Z" transform="translate(-281.638 -304.442)" fill="#ff7382"/><path d="M279.321,425.2v21.181H238.9V425.2Zm-5.19,17V429.335h-30V442.2Z" transform="translate(-230.883 -356.468)" fill="#ebb886"/><path d="M279.321,375v21.181H238.9V375Zm-5.19,17V379.177h-30V392Z" transform="translate(-230.883 -327.449)" fill="#ebb886"/><rect width="29.999" height="12.869" transform="translate(13.206 72.909)" fill="#ebb886"/><rect width="29.999" height="12.869" transform="translate(13.206 51.728)" fill="#ebb886"/><path d="M277.078,273.725l3.629,3.629-2.616,2.616-4.388,4.388-2.616,2.616-3.629-3.629a6.732,6.732,0,0,1-1.561-7.173h0l4.051-4.051h0a6.5,6.5,0,0,1,2.363-.422A6.864,6.864,0,0,1,277.078,273.725Z" transform="translate(-246.235 -267.734)" fill="#00d3ff"/><path d="M289.388,291.3a3.028,3.028,0,0,1,.886,2.152,3.115,3.115,0,0,1-3.122,3.122,3.028,3.028,0,0,1-2.152-.886Z" transform="translate(-257.533 -279.064)" fill="#ffe499"/><path d="M265.938,356.7v.928H247.5V356.7a3.007,3.007,0,0,1,3-3h12.447A2.98,2.98,0,0,1,265.938,356.7Z" transform="translate(-235.855 -315.136)" fill="#00d3ff"/><path d="M267.984,348.613H260.6a3.692,3.692,0,1,1,7.384,0Z" transform="translate(-243.428 -310.049)" fill="#00d3ff"/><path d="M269.323,271.629l-4.05,4.05a2.9,2.9,0,0,1,0-4.05,2.827,2.827,0,0,1,4.05,0Z" transform="translate(-245.653 -267.199)" fill="#00d3ff"/><path d="M234.91,306.9A2.932,2.932,0,1,1,232,309.854,2.9,2.9,0,0,1,234.91,306.9Z" transform="translate(-226.893 -288.082)" fill="#bee1e5"/></g><g transform="translate(9.182 0.042)"><rect width="96.03" height="8.439" transform="translate(47.904 48.226)" fill="#141414" opacity="0.35"/><path d="M337.057,335.2H327.1v1.477h1.941v2.911a1.477,1.477,0,1,0,2.953,0v-2.911h5.063Z" transform="translate(-282.402 -304.484)" fill="#fff" opacity="0.35"/><path d="M388.672,267.9,376.9,279.63V287.6l19.746-19.7Z" transform="translate(-311.19 -265.579)" fill="#fff" opacity="0.15"/><path d="M403.99,267.669l-23.29,23.29h16.16L420.277,267.5Z" transform="translate(-313.387 -265.348)" fill="#fff" opacity="0.15"/><path d="M378.037,327.884l-4.937,4.979v1.266l.844.844h2.743l.338-2.489,1.73.253,4.894-4.937Z" transform="translate(-308.994 -300.206)" fill="#fff" opacity="0.5"/><path d="M394.583,328.827,389.9,333.51h1.266l4.852-4.81Z" transform="translate(-318.705 -300.726)" fill="#fff" opacity="0.5"/><path d="M465.8,332.093l5.823-.422.253,3.375h1.941l2.616-1.224.759-2.152V328h-5.148a4.634,4.634,0,0,1-1.392,2.11,8.274,8.274,0,0,1-4.852,1.983" transform="translate(-362.581 -300.322)" fill="#141414" opacity="0.08"/><rect width="25.4" height="1.266" transform="translate(75.583 33.248)" fill="#141414" opacity="0.12"/><path d="M461.8,343.366a6.4,6.4,0,0,0,6.2-6.582l1.308-.084.422,5.443h1.6l-.169.844-.928.886-6.835.506Z" transform="translate(-360.269 -305.351)" fill="#141414" opacity="0.08"/><path d="M460.938,342.49l.169-.633a5.648,5.648,0,0,1,3.671-3.882l2.025-.675-6.2.338Z" transform="translate(-359.575 -305.698)" fill="#fff" opacity="0.3"/><path d="M378.492,345.319c3.713.8,7.046.675,8.185-4.219l-.928,5.991-1.139.506-6.835-1.055-.675-1.308Z" transform="translate(-311.306 -307.894)" fill="#141414" opacity="0.08"/><path d="M381.1,342.866l.549-3.966,4.3.591-1.181.127a4.034,4.034,0,0,0-3.207,2.321Z" transform="translate(-313.618 -306.623)" fill="#fff"/><rect width="9.156" height="2.7" transform="translate(84.359 34.387)" fill="#141414" opacity="0.25"/><rect width="40.463" height="2.405" transform="translate(7.484 47.424)" fill="#141414" opacity="0.25"/><path d="M265.9,284.763c5.907,5.105,13.291-.548,12.827-5.063l2.236,2.236-5.991,5.991L271.3,291.6c-1.73-1.857-3.46-3.671-5.19-5.485Z" transform="translate(-247.024 -272.401)" fill="#141414" opacity="0.08"/><path d="M285,353.911V353.7l.338.211Z" transform="translate(-258.065 -315.178)" fill="#141414" opacity="0.15"/><path d="M265.2,355.3l-.422-.253-1.35-.844h-.338a1.414,1.414,0,0,1-.928,1.181c-2.658,1.477-10.379,1.266-14.852,1.055l-.211,1.477H266Z" transform="translate(-236.156 -315.467)" fill="#141414" opacity="0.08"/><path d="M249.7,354.2h14.894a1.414,1.414,0,0,1-.928,1.181H249.7Z" transform="translate(-237.659 -315.467)" fill="#fff" opacity="0.5"/><path d="M287.15,354.2v.844l-1.35-.844Z" transform="translate(-258.528 -315.467)" fill="#fff" opacity="0.3"/><path d="M491.5,368.063c11.6.126,22.109-.464,22.447-5.063H533.9l.928,2.531-1.266,2.194-18.48.338Z" transform="translate(-377.438 -320.554)" fill="#141414" opacity="0.1"/><path d="M431.421,373.291H378.343a45.4,45.4,0,0,0-5.358,0H334.8v3h53.711a16.845,16.845,0,0,1,10.506,3.586,10.785,10.785,0,0,1,2.532,2.742H431l.3-6.329h.127Z" transform="translate(-286.853 -326.457)" fill="#141414" opacity="0.15"/><path d="M253.71,475.4h0Z" transform="translate(-231.416 -385.53)" fill="#fff" opacity="0.3"/><path d="M274.131,407.4a14.207,14.207,0,0,0,5.19-1.6v8.143H238.9v-2.321c8.228.042,35.231-1.814,35.231-1.814v-2.4Z" transform="translate(-231.416 -345.296)" fill="#141414" opacity="0.1"/><path d="M242.6,451.621a2.917,2.917,0,0,1-1.9-1.013,2.869,2.869,0,0,1-.675-1.6L238.8,436.6v16.371h14.767Z" transform="translate(-231.358 -363.101)" fill="#fff" opacity="0.35"/><path d="M281.864,456.1v8.143H256.211l-11.012-1.35a2.916,2.916,0,0,1-1.9-1.013c9.831-.169,33.332-1.814,33.332-1.814v-2.4A15.166,15.166,0,0,0,281.864,456.1Z" transform="translate(-233.96 -374.373)" fill="#141414" opacity="0.1"/><path d="M562.974,340.3h-2.025c.042.506.084,1.013.084,1.477a9.428,9.428,0,0,1-1.561,5.021,2.786,2.786,0,0,1-2.278,1.224h-1.308v1.645c-.169.042-.38.127-.549.169l-.338.042h7.215v-1.9h0l.633-6.2Z" transform="translate(-414.145 -307.432)" fill="#141414" opacity="0.08"/><path d="M560.471,340.3c.042.506.084,1.013.084,1.477H554.1V340.3Z" transform="translate(-413.625 -307.432)" fill="#fff" opacity="0.3"/><path d="M573.727,340.3v1.477H573.6Z" transform="translate(-424.898 -307.432)" fill="#141414"/><rect width="23.248" height="2.236" transform="translate(76.975 40.21)" fill="#fff" opacity="0.5"/><path d="M274.072,272.18l-3.629-.38-1.688,1.435h0a1.438,1.438,0,0,0,.042.422l-.759-.169L265,276.779l.169,2.321,2.953-3.038a1.3,1.3,0,0,1,1.9,0l.169.169a3.684,3.684,0,0,0,2.321.8,3.742,3.742,0,0,0,3.333-2.025,4.475,4.475,0,0,0,.422-1.266Z" transform="translate(-246.504 -267.834)" fill="#fff" opacity="0.35"/><path d="M398.443,392.1h-54.26a5.791,5.791,0,0,0-4.683,2.11h63.626A5.791,5.791,0,0,0,398.443,392.1Z" transform="translate(-289.57 -337.376)" fill="#fff" opacity="0.15"/><ellipse cx="0.759" cy="0.759" rx="0.759" ry="0.759" transform="translate(6.724 20.97)" fill="#141414" opacity="0.25"/><path d="M232.644,310.435a2.616,2.616,0,0,1,5.232,0l-.759-3.08-2.489-1.055-2.025,1.224-.8,1.814Z" transform="translate(-227.312 -287.777)" fill="#fff" opacity="0.3"/><path d="M236.705,310.3a2.625,2.625,0,1,1-5.105,1.224l1.435,2.827,2.658.464,1.688-1.646.338-1.983Z" transform="translate(-227.196 -290.09)" fill="#141414" opacity="0.15"/><path d="M287.616,294.955l2.489-2.489-.717-1.266-3.038,3.08-.084-.084-.633.759h0l-.38.464-.253.338,1.181.506,2.574-.211,1.392-1.308v-.591A2.536,2.536,0,0,1,287.616,294.955Z" transform="translate(-258.065 -279.049)" fill="#141414" opacity="0.15"/><ellipse cx="1.35" cy="0.844" rx="1.35" ry="0.844" transform="translate(23.812 5.316)" fill="#fff" opacity="0.35"/><path d="M264.922,274.632l-.422-2.194,2.405-3.038,1.856,1.266Z" transform="translate(-246.215 -266.447)" fill="#fff" opacity="0.5"/><ellipse cx="1.646" cy="0.886" rx="1.646" ry="0.886" transform="translate(17.641 36.03) rotate(-22.955)" fill="#fff" opacity="0.5"/><path d="M378.726,365.266H224.005a2.382,2.382,0,0,0-1.772.759,2.527,2.527,0,0,0-.759,1.772c0,.464-.928-3.8.422-3.8H376.532A2.468,2.468,0,0,1,378.726,365.266Z" transform="translate(-221.163 -321.132)" fill="#fff" opacity="0.35"/><rect width="5.443" height="2.953" transform="translate(143.935 47.382)" fill="#141414" opacity="0.25"/><path d="M562.8,437.436c0,2.658,5.232,2.489,5.232-12.236v21.181H562.8Z" transform="translate(-418.654 -356.51)" fill="#141414" opacity="0.1"/><path d="M252.2,449.713c0,1.9,29.619,2.447,29.619-6.413v9.367H252.2Z" transform="translate(-239.105 -366.974)" fill="#141414" opacity="0.1"/><path d="M252.2,399.713c0,1.9,29.619,2.447,29.619-6.413v9.367H252.2Z" transform="translate(-239.105 -338.07)" fill="#141414" opacity="0.1"/><path d="M281.183,435.1h-30v1.181H251.1l.928,8.185,1.055-6.5a1.183,1.183,0,0,1,1.181-1.013h26.961V435.1Z" transform="translate(-238.469 -362.233)" fill="#fff" opacity="0.35"/><path d="M281.3,384.9h-30v1.856l.38,7,1.392-6.076a1.17,1.17,0,0,1,1.139-.928H281.3Z" transform="translate(-238.584 -333.214)" fill="#fff" opacity="0.35"/><path d="M279.763,425.8H239.3v1.435l.548,4.979.844-3.966a1.272,1.272,0,0,1,1.266-1.013h37.8Z" transform="translate(-231.647 -356.857)" fill="#fff" opacity="0.35"/><path d="M326.928,347.4c0,1.6,8.9,2.405,8.9-3.8v6.2l-1.435,1.224H327.73l-1.73-2.11.464-1.055Z" transform="translate(-281.766 -309.34)" fill="#141414" opacity="0.05"/><path d="M376.554,298.39h-1.013a3.355,3.355,0,0,1-2.954-1.73,3.191,3.191,0,0,1-.422-1.646V266.2a2.539,2.539,0,0,1,2.532-2.532h45.568a3.839,3.839,0,0,1,1.688.422A3.4,3.4,0,0,0,419,262.4H374.275a3.385,3.385,0,0,0-3.375,3.375v27.974a3.4,3.4,0,0,0,3.375,3.375h1.013" transform="translate(-307.722 -262.4)" fill="#fff" opacity="0.75"/><path d="M423.5,269.461v21.6a.711.711,0,0,1-.717.717H376.966a1.243,1.243,0,0,1-1.266-1.266h46.538V268.2a.719.719,0,0,0-.042-.3A1.618,1.618,0,0,1,423.5,269.461Z" transform="translate(-310.497 -265.579)" fill="#fff" opacity="0.75"/><ellipse cx="2.11" cy="0.759" rx="2.11" ry="0.759" transform="matrix(0.98, -0.2, 0.2, 0.98, 118.427, 39.879)" fill="#fff" opacity="0.5"/><path d="M559.086,343.4h.38a1.036,1.036,0,0,1,1.055,1.013v2.532a1.01,1.01,0,0,1-1.055,1.013h0a1.04,1.04,0,0,1-1.013-.886l-.38-2.532A1,1,0,0,1,559.086,343.4Z" transform="translate(-415.91 -309.224)" fill="#fff" opacity="0.59"/></g><g transform="translate(0 0.042)"><path d="M290.274,293.452a3.115,3.115,0,0,1-3.122,3.122,3.028,3.028,0,0,1-2.152-.886l4.388-4.388A3.028,3.028,0,0,1,290.274,293.452Z" transform="translate(-248.883 -279.106)" fill="none" stroke="#3a4061" stroke-linecap="round" stroke-linejoin="round" stroke-miterlimit="10" stroke-width="1"/><path d="M243,308.3" transform="translate(-224.604 -288.934)" fill="none" stroke="#3a4061" stroke-linecap="round" stroke-linejoin="round" stroke-miterlimit="10" stroke-width="1"/><path d="M251.93,272.4c-7.974-2.278-10.717,9.325-10.633,14.641" transform="translate(-223.619 -268.011)" fill="none" stroke="#3a4061" stroke-linecap="round" stroke-linejoin="round" stroke-miterlimit="10" stroke-width="1"/><path d="M236.33,320.4c-.591,5.232,4.051,5.19,7.173,5.316,4.472.169,7.131,1.181,7.131,5.063" transform="translate(-220.718 -295.928)" fill="none" stroke="#3a4061" stroke-linecap="round" stroke-linejoin="round" stroke-miterlimit="10" stroke-width="1"/><ellipse cx="1.35" cy="1.35" rx="1.35" ry="1.35" transform="translate(96.706 29.999)" fill="#f0f0f2" stroke="#3a4061" stroke-miterlimit="10" stroke-width="1"/><path d="M277.6,450.3h7.384" transform="translate(-244.605 -371.02)" fill="none" stroke="#3a4061" stroke-linecap="round" stroke-linejoin="round" stroke-miterlimit="10" stroke-width="1"/><path d="M277.6,400.1h7.384" transform="translate(-244.605 -342.001)" fill="none" stroke="#3a4061" stroke-linecap="round" stroke-linejoin="round" stroke-miterlimit="10" stroke-width="1"/><path d="M421.62,267.9H378.2a1.6,1.6,0,0,0-1.6,1.6v21.476h46.581V269.5A1.594,1.594,0,0,0,421.62,267.9Z" transform="translate(-301.835 -265.579)" fill="none" stroke="#3a4061" stroke-linecap="round" stroke-linejoin="round" stroke-miterlimit="10" stroke-width="1"/><line x2="6.413" transform="translate(88.436 40.21)" stroke-width="1" stroke="#3a4061" stroke-linecap="round" stroke-linejoin="round" stroke-miterlimit="10" fill="none"/><line x2="1.139" transform="translate(96.916 40.21)" stroke-width="1" stroke="#3a4061" stroke-linecap="round" stroke-linejoin="round" stroke-miterlimit="10" fill="none"/><line x1="7.848" transform="translate(149.826 35.822)" stroke-width="1" stroke="#3a4061" stroke-linecap="round" stroke-linejoin="round" stroke-miterlimit="10" fill="none"/><line x1="7.595" transform="translate(149.953 37.762)" stroke-width="1" stroke="#3a4061" stroke-linecap="round" stroke-linejoin="round" stroke-miterlimit="10" fill="none"/><line x1="5.696" y2="5.696" transform="translate(72.234 47.509)" stroke-width="1" stroke="#3a4061" stroke-linecap="round" stroke-linejoin="round" stroke-miterlimit="10" fill="none"/><line x1="2.996" y2="2.996" transform="translate(78.225 47.509)" stroke-width="1" stroke="#3a4061" stroke-linecap="round" stroke-linejoin="round" stroke-miterlimit="10" fill="none"/><line y2="4.599" transform="translate(54.597 68.69)" stroke-width="1" stroke="#3a4061" stroke-linecap="round" stroke-linejoin="round" stroke-miterlimit="10" fill="none"/><line y1="2.11" x2="2.067" transform="translate(130.08 54.724)" stroke-width="1" stroke="#3a4061" stroke-linecap="round" stroke-linejoin="round" stroke-miterlimit="10" fill="none"/><path d="M540.9,375" transform="translate(-396.812 -327.491)" fill="none" stroke="#3a4061" stroke-linecap="round" stroke-linejoin="round" stroke-miterlimit="10" stroke-width="1"/><path d="M468.981,342.27l-.127-1.6-.3-3.966-8.059.591.422,5.569a1.608,1.608,0,1,0,3.206-.253l3.249-.253,1.6-.084,1.6-.127a1.606,1.606,0,0,1-1.477,1.73l-6.455.464" transform="translate(-350.335 -305.351)" fill="none" stroke="#3a4061" stroke-linejoin="round" stroke-miterlimit="10" stroke-width="1"/><path d="M384.534,346.368l-5.991-.8a1.485,1.485,0,0,1-1.266-1.688l1.477.211,1.477.211,3.038.422a1.459,1.459,0,0,0,1.266,1.646,1.485,1.485,0,0,0,1.688-1.266l.675-5.19-7.468-1.013-.506,3.713-.211,1.477" transform="translate(-302.216 -306.623)" fill="none" stroke="#3a4061" stroke-linejoin="round" stroke-miterlimit="10" stroke-width="1"/><line y1="0.422" x2="5.569" transform="translate(111.599 33.501)" fill="none" stroke="#3a4061" stroke-linejoin="round" stroke-miterlimit="10" stroke-width="1"/><line y1="0.211" x2="2.869" transform="translate(111.895 35.484)" fill="none" stroke="#3a4061" stroke-linejoin="round" stroke-miterlimit="10" stroke-width="1"/><line y1="0.169" x2="1.73" transform="translate(115.523 35.273)" fill="none" stroke="#3a4061" stroke-linejoin="round" stroke-miterlimit="10" stroke-width="1"/><line x1="25.653" transform="translate(84.343 34.725)" fill="none" stroke="#3a4061" stroke-linejoin="round" stroke-miterlimit="10" stroke-width="1"/><path d="M375.288,297.125h-1.013a3.385,3.385,0,0,1-3.375-3.375V265.776a3.385,3.385,0,0,1,3.375-3.375H419a3.385,3.385,0,0,1,3.375,3.375v27.974A3.385,3.385,0,0,1,419,297.125h-2.321" transform="translate(-298.54 -262.4)" fill="none" stroke="#3a4061" stroke-linejoin="round" stroke-miterlimit="10" stroke-width="1"/><line x1="51.475" transform="translate(72.318 27.678)" stroke-width="1" stroke="#3a4061" stroke-linecap="round" stroke-linejoin="round" stroke-miterlimit="10" fill="none"/><path d="M260.411,353.7h2.532a3.007,3.007,0,0,1,3,3v.928H247.5V356.7a3.007,3.007,0,0,1,3-3h2.532" transform="translate(-227.205 -315.178)" fill="none" stroke="#3a4061" stroke-linecap="round" stroke-linejoin="round" stroke-miterlimit="10" stroke-width="1"/><path d="M267.984,348.613H260.6a3.718,3.718,0,0,1,3.713-3.713A3.656,3.656,0,0,1,267.984,348.613Z" transform="translate(-234.778 -310.091)" fill="none" stroke="#3a4061" stroke-linecap="round" stroke-linejoin="round" stroke-miterlimit="10" stroke-width="1"/><path d="M269.323,271.629l-4.05,4.05a2.9,2.9,0,0,1,0-4.05A2.827,2.827,0,0,1,269.323,271.629Z" transform="translate(-237.004 -267.241)" fill="none" stroke="#3a4061" stroke-linecap="round" stroke-linejoin="round" stroke-miterlimit="10" stroke-width="1"/><ellipse cx="2.953" cy="2.953" rx="2.953" ry="2.953" transform="translate(13.713 18.776)" stroke-width="1" stroke="#3a4061" stroke-linecap="round" stroke-linejoin="round" stroke-miterlimit="10" fill="none"/><line x1="10.422" y1="10.379" transform="translate(17.552 24.767)" stroke-width="1" stroke="#3a4061" stroke-linecap="round" stroke-linejoin="round" stroke-miterlimit="10" fill="none"/><path d="M265.822,276.23a6.813,6.813,0,0,0,1.561,7.173l3.629,3.629,2.616-2.616,4.388-4.388,2.616-2.616L277,273.783a6.915,6.915,0,0,0-4.81-1.983,6.5,6.5,0,0,0-2.363.422" transform="translate(-237.553 -267.834)" fill="none" stroke="#3a4061" stroke-linecap="round" stroke-linejoin="round" stroke-miterlimit="10" stroke-width="1"/><line y1="10.59" x2="10.548" transform="translate(17.721 8.396)" stroke-width="1" stroke="#3a4061" stroke-linecap="round" stroke-linejoin="round" stroke-miterlimit="10" fill="none"/><path d="M333.367,346.45H330.16a3.476,3.476,0,0,1-3.46-3.46V335.1h10.126v7.89A3.476,3.476,0,0,1,333.367,346.45Z" transform="translate(-272.989 -304.426)" fill="none" stroke="#3a4061" stroke-linecap="round" stroke-linejoin="round" stroke-miterlimit="10" stroke-width="1"/><path d="M375.28,368.063H222.332a2.539,2.539,0,0,1-2.532-2.532h0A2.539,2.539,0,0,1,222.332,363H375.28a2.539,2.539,0,0,1,2.532,2.531h0A2.539,2.539,0,0,1,375.28,368.063Z" transform="translate(-211.193 -320.554)" fill="none" stroke="#3a4061" stroke-linecap="round" stroke-linejoin="round" stroke-miterlimit="10" stroke-width="1"/><path d="M350.7,346.185h.928a2.737,2.737,0,0,0,2.743-2.742,2.737,2.737,0,0,0-2.743-2.743H350.7" transform="translate(-286.863 -307.663)" fill="none" stroke="#3a4061" stroke-linecap="round" stroke-linejoin="round" stroke-miterlimit="10" stroke-width="1"/><rect width="40.421" height="42.361" transform="translate(16.666 47.509)" stroke-width="1" stroke="#3a4061" stroke-linecap="round" stroke-linejoin="round" stroke-miterlimit="10" fill="none"/><line x1="40.421" transform="translate(16.666 68.69)" stroke-width="1" stroke="#3a4061" stroke-linecap="round" stroke-linejoin="round" stroke-miterlimit="10" fill="none"/><rect width="29.999" height="12.827" transform="translate(21.856 72.867)" stroke-width="1" stroke="#3a4061" stroke-linecap="round" stroke-linejoin="round" stroke-miterlimit="10" fill="none"/><rect width="29.999" height="12.827" transform="translate(21.856 51.686)" stroke-width="1" stroke="#3a4061" stroke-linecap="round" stroke-linejoin="round" stroke-miterlimit="10" fill="none"/><path d="M420.055,344.7c.675,3.08,2.236,5.063,5.105,5.063a2.154,2.154,0,0,1,1.6.759,2.893,2.893,0,0,1,.675,1.9H403.6a2.48,2.48,0,0,1,2.278-2.658,5.106,5.106,0,0,0,4.262-2.11,7.382,7.382,0,0,0,.844-2.954" transform="translate(-317.443 -309.976)" fill="none" stroke="#3a4061" stroke-linecap="round" stroke-linejoin="round" stroke-miterlimit="10" stroke-width="1"/><rect width="5.232" height="42.361" transform="translate(153.328 47.509)" stroke-width="1" stroke="#3a4061" stroke-linecap="round" stroke-linejoin="round" stroke-miterlimit="10" fill="none"/><rect width="96.199" height="9.325" transform="translate(57.129 47.509)" fill="none" stroke="#3a4061" stroke-miterlimit="10" stroke-width="1"/><path d="M556.236,349.878h3.755a1.77,1.77,0,0,0,1.6-1.814l.633-7.763H554l.633,7.763A1.8,1.8,0,0,0,556.236,349.878Z" transform="translate(-404.385 -307.432)" fill="none" stroke="#3a4061" stroke-linecap="round" stroke-linejoin="round" stroke-miterlimit="10" stroke-width="1"/><line x2="165.901" transform="translate(6.54 89.87)" stroke-width="1" stroke="#3a4061" stroke-linecap="round" stroke-linejoin="round" stroke-miterlimit="10" fill="none"/><line x1="3.375" transform="translate(0 89.87)" stroke-width="1" stroke="#3a4061" stroke-linecap="round" stroke-linejoin="round" stroke-miterlimit="10" fill="none"/><line transform="translate(175.395 89.87)" stroke-width="1" stroke="#3a4061" stroke-linecap="round" stroke-linejoin="round" stroke-miterlimit="10" fill="none"/><path d="M498.8,358.375c.085-1.857,2.194-3.375,4.726-3.375s4.641,1.519,4.768,3.375" transform="translate(-372.475 -315.93)" fill="none" stroke="#3a4061" stroke-linecap="round" stroke-linejoin="round" stroke-miterlimit="10" stroke-width="1"/><line x1="0.97" y2="7.046" transform="translate(156.281 25.822)" stroke-width="1" stroke="#3a4061" stroke-linecap="round" stroke-linejoin="round" stroke-miterlimit="10" fill="none"/><line y1="4.852" transform="translate(153.37 28.016)" stroke-width="1" stroke="#3a4061" stroke-linecap="round" stroke-linejoin="round" stroke-miterlimit="10" fill="none"/><line x2="3.629" y2="0.464" transform="translate(78.014 35.779)" fill="none" stroke="#3a4061" stroke-linejoin="round" stroke-miterlimit="10" stroke-width="1"/><line x2="4.43" y2="0.591" transform="translate(78.31 34.218)" fill="none" stroke="#3a4061" stroke-linejoin="round" stroke-miterlimit="10" stroke-width="1"/><line transform="translate(35.315 13.966)" stroke-width="1" stroke="#3a4061" stroke-linecap="round" stroke-linejoin="round" stroke-miterlimit="10" fill="none"/><line x1="2.405" y2="2.447" transform="translate(31.855 15.021)" stroke-width="1" stroke="#3a4061" stroke-linecap="round" stroke-linejoin="round" stroke-miterlimit="10" fill="none"/></g></g></g></g></svg>