<svg xmlns="http://www.w3.org/2000/svg" style="isolation:isolate" viewBox="-2668.896 -13953.521 2588.896 1652.146">
  <defs>
    <clipPath id="a">
      <path d="M-2668.896-13953.521H-80v1652.146h-2588.896z"/>
    </clipPath>
  </defs>
  <g clip-path="url(#a)">
    <defs>
      <filter id="b" x="-200%" y="-200%" width="400%" height="400%" filterUnits="objectBoundingBox" color-interpolation-filters="sRGB">
        <feGaussianBlur xmlns="http://www.w3.org/2000/svg" in="SourceGraphic" stdDeviation="6.44"/>
        <feOffset xmlns="http://www.w3.org/2000/svg" dy="7" result="pf_100_offsetBlur"/>
        <feFlood xmlns="http://www.w3.org/2000/svg" flood-color="#000" flood-opacity=".5"/>
        <feComposite xmlns="http://www.w3.org/2000/svg" in2="pf_100_offsetBlur" operator="in" result="pf_100_dropShadow"/>
        <feBlend xmlns="http://www.w3.org/2000/svg" in="SourceGraphic" in2="pf_100_dropShadow"/>
      </filter>
    </defs>
    <g filter="url(#b)">
      <linearGradient id="c" y1=".5" x2="1" y2=".5" gradientTransform="matrix(1580 0 0 565.554 -1680 -12893.929)" gradientUnits="userSpaceOnUse">
        <stop offset="2.609%" stop-color="#421a60"/>
        <stop offset="96.522%" stop-color="#2b0d42"/>
      </linearGradient>
      <path d="M-1679.625-12893.056l-.375 47.625q3.594 11.406 22 22t842 486q41 19.063 76-2c7.564-4.553 53.567-31.236 82.596-48.135q195.482-113.795 522.734-302.112c19.135-11.011 34.67-37.874 34.67-59.95v-6.19l-640 323.768q-46.125 17.937-80 0-33.875-17.938-800-461.879-57.539 13.701-59.625.873z" fill="url(#c)"/>
    </g>
    <linearGradient id="d" x1=".213" y1=".197" x2=".799" y2=".796" gradientTransform="matrix(1600 0 0 923.762 -1700 -13279.056)" gradientUnits="userSpaceOnUse">
      <stop offset="2.609%" stop-color="#5f2c85"/>
      <stop offset="98.261%" stop-color="#45136b"/>
    </linearGradient>
    <path d="M-1665.359-12906.457l645.359-372.599 920 531.162-645.359 372.599c-19.119 11.039-50.163 11.039-69.282.001l-850.718-491.163c-19.119-11.038-19.119-28.961 0-40z" fill="url(#d)"/>
    <linearGradient id="e" y1=".5" x2="1" y2=".5" gradientTransform="matrix(954 0 0 1239.426 -1054 -13964.426)" gradientUnits="userSpaceOnUse">
      <stop offset="3.043%" stop-color="#3c105d"/>
      <stop offset="98.261%" stop-color="#2b0d42"/>
    </linearGradient>
    <path d="M-100-12748.094l-40 23.094-4.23-42.496-1.227-55.875 1.457-548.262-2.561-1.681c-18.455-12.114-48.74-31.284-67.587-42.781L-1054-13928.426l16-12c17.661-13.246 43.65-17.08 58-8.556l845.359 488.068c19.119 11.038 34.641 37.923 34.641 60v652.82z" fill="url(#e)"/>
    <linearGradient id="f" x1=".005" y1=".275" x2=".993" y2=".657" gradientTransform="matrix(920 0 0 1223.982 -1060 -13948.982)" gradientUnits="userSpaceOnUse">
      <stop offset="1.304%" stop-color="#553170"/>
      <stop offset="97.391%" stop-color="#3b1756"/>
    </linearGradient>
    <path d="M-1060-13256.162v-652.82c0-22.077 15.526-31.046 34.65-20.016l845.35 487.545.762.45c21.656 12.795 39.238 43.604 39.238 68.757V-12725l-920-531.162z" fill="url(#f)"/>
    <defs>
      <filter id="g" x="-200%" y="-200%" width="400%" height="400%" filterUnits="objectBoundingBox" color-interpolation-filters="sRGB">
        <feGaussianBlur xmlns="http://www.w3.org/2000/svg" stdDeviation="12.881"/>
      </filter>
    </defs>
    <g filter="url(#g)">
      <linearGradient id="h" y1=".3" x2="1.032" y2=".757" gradientTransform="matrix(840 0 0 1085.418 -1020 -13884.238)" gradientUnits="userSpaceOnUse">
        <stop offset="0%" stop-color="#f90"/>
        <stop offset="96.522%" stop-color="#fcc475"/>
      </linearGradient>
      <path d="M-1020-13283.795v-600.443l840 484.974v600.444l-840-484.975z" fill="url(#h)"/>
    </g>
    <path d="M-1020-13283.795v-600.443l840 484.974v600.444l-840-484.975z" fill="#F90"/>
    <linearGradient id="i" x1="1.014" y1=".633" x2="-.342" y2=".022" gradientTransform="matrix(840 0 0 1085.418 -1020 -13884.238)" gradientUnits="userSpaceOnUse">
      <stop offset="1.739%" stop-opacity="0" stop-color="#fff"/>
      <stop offset="97.826%" stop-opacity=".57" stop-color="#fff"/>
    </linearGradient>
    <path d="M-1020-13283.795v-600.443l840 484.974v600.444l-840-484.975z" fill="url(#i)"/>
    <linearGradient id="j" x1=".166" y1=".236" x2=".746" y2=".833" gradientTransform="matrix(400 0 0 230.94 -1310.453 -12807.489)" gradientUnits="userSpaceOnUse">
      <stop offset="0%" stop-color="#3c105d"/>
      <stop offset="100%" stop-color="#300d4a"/>
    </linearGradient>
    <path d="M-1293.132-12725.114l125.359-72.375c9.559-5.519 25.081-5.519 34.641 0l205.359 118.564c9.559 5.519 9.559 14.481 0 20l-125.359 72.375c-9.56 5.519-25.082 5.519-34.641 0l-205.359-118.564c-9.56-5.519-9.56-14.481 0-20z" fill="url(#j)"/>
    <linearGradient id="k" x1=".166" y1=".236" x2=".746" y2=".833" gradientTransform="matrix(48 0 0 35.134 -260.302 -12755.441)" gradientUnits="userSpaceOnUse">
      <stop offset="0%" stop-color="#3c105d"/>
      <stop offset="100%" stop-color="#300d4a"/>
    </linearGradient>
    <ellipse vector-effect="non-scaling-stroke" cx="-236.302" cy="-12737.874" rx="24" ry="17.567" fill="url(#k)"/>
    <g>
      <linearGradient id="l" x1=".023" y1=".338" x2=".666" y2="1.004" gradientTransform="matrix(1040 0 0 600.444 -1340.302 -13171.133)" gradientUnits="userSpaceOnUse">
        <stop offset="2.174%" stop-color="#3c105c"/>
        <stop offset="100%" stop-color="#310d4b"/>
      </linearGradient>
      <path d="M-1340.302-12963.287l360-207.846 680 392.597-360 207.847-680-392.598z" fill="url(#l)"/>
      <defs>
        <filter id="m" x="-200%" y="-200%" width="400%" height="400%" filterUnits="objectBoundingBox" color-interpolation-filters="sRGB">
          <feGaussianBlur xmlns="http://www.w3.org/2000/svg" stdDeviation="4.551"/>
        </filter>
      </defs>
      <path d="M-695.67-12871.975l31.34 18.094c2.39 1.379 2.39 3.62 0 5l-31.34 18.094c-2.39 1.38-6.27 1.38-8.66 0l-31.34-18.094c-2.39-1.38-2.39-3.621 0-5l31.34-18.094c2.39-1.379 6.27-1.379 8.66 0zm60 34.728l31.34 18.094c2.39 1.38 2.39 3.62 0 5l-31.34 18.094c-2.39 1.38-6.27 1.38-8.66 0l-31.34-18.094c-2.39-1.38-2.39-3.62 0-5l31.34-18.094c2.39-1.38 6.27-1.38 8.66 0zm-220-243.011l31.34 18.094c2.39 1.38 2.39 3.62 0 5l-11.34 6.547c-2.39 1.38-6.27 1.38-8.66 0l-31.34-18.094c-2.39-1.38-2.39-3.62 0-5l11.34-6.547c2.39-1.38 6.27-1.38 8.66 0zm60 34.641l31.34 18.094c2.39 1.379 2.39 3.62 0 5l-11.34 6.546c-2.39 1.38-6.27 1.38-8.66 0l-31.34-18.093c-2.39-1.38-2.39-3.62 0-5l11.34-6.547c2.39-1.38 6.27-1.38 8.66 0zm60 34.64l31.34 18.094c2.39 1.38 2.39 3.62 0 5l-11.34 6.547c-2.39 1.38-6.27 1.38-8.66 0l-31.34-18.094c-2.39-1.38-2.39-3.62 0-5l11.34-6.547c2.39-1.379 6.27-1.379 8.66 0zm-180-103.921l31.34 18.093c2.39 1.38 2.39 3.62 0 5l-11.34 6.547c-2.39 1.38-6.27 1.38-8.66 0l-31.34-18.094c-2.39-1.379-2.39-3.62 0-5l11.34-6.546c2.39-1.38 6.27-1.38 8.66 0zm240 138.562l31.34 18.094c2.39 1.38 2.39 3.62 0 5l-11.34 6.547c-2.39 1.38-6.27 1.38-8.66 0l-31.34-18.094c-2.39-1.38-2.39-3.62 0-5l11.34-6.547c2.39-1.38 6.27-1.38 8.66 0zm-300-173.203l31.34 18.094c2.39 1.38 2.39 3.62 0 5l-11.34 6.547c-2.39 1.379-6.27 1.379-8.66 0l-31.34-18.094c-2.39-1.38-2.39-3.62 0-5l11.34-6.547c2.39-1.38 6.27-1.38 8.66 0zm360 207.844l31.34 18.093c2.39 1.38 2.39 3.621 0 5l-11.34 6.547c-2.39 1.38-6.27 1.38-8.66 0l-31.34-18.093c-2.39-1.38-2.39-3.621 0-5l11.34-6.547c2.39-1.38 6.27-1.38 8.66 0zm60 34.64l31.34 18.094c2.39 1.38 2.39 3.62 0 5l-11.34 6.547c-2.39 1.38-6.27 1.38-8.66 0l-31.34-18.094c-2.39-1.38-2.39-3.62 0-5l11.34-6.547c2.39-1.38 6.27-1.38 8.66 0zm60 34.641l31.34 18.094c2.39 1.38 2.39 3.62 0 5l-11.34 6.547c-2.39 1.379-6.27 1.379-8.66 0l-31.34-18.094c-2.39-1.38-2.39-3.62 0-5l11.34-6.547c2.39-1.38 6.27-1.38 8.66 0zm60 34.641l31.34 18.093c2.39 1.38 2.39 3.62 0 5l-11.34 6.547c-2.39 1.38-6.27 1.38-8.66 0l-31.34-18.094c-2.39-1.379-2.39-3.62 0-5l11.34-6.546c2.39-1.38 6.27-1.38 8.66 0zm60 34.64l31.34 18.094c2.39 1.38 2.39 3.62 0 5l-11.34 6.547c-2.39 1.38-6.27 1.38-8.66 0l-31.34-18.094c-2.39-1.38-2.39-3.62 0-5l11.34-6.547c2.39-1.38 6.27-1.38 8.66 0zm-640-323.312l31.34 18.093c2.39 1.38 2.39 3.621 0 5l-31.34 18.095c-2.39 1.38-6.27 1.38-8.66 0l-31.34-18.095c-2.39-1.379-2.39-3.62 0-5l31.34-18.093c2.39-1.38 6.27-1.38 8.66 0zm60 34.641l31.34 18.094c2.39 1.38 2.39 3.62 0 5l-31.34 18.095c-2.39 1.379-6.27 1.379-8.66 0l-31.34-18.095c-2.39-1.38-2.39-3.62 0-5l31.34-18.094c2.39-1.38 6.27-1.38 8.66 0zm60 34.728l31.34 18.094c2.39 1.379 2.39 3.62 0 5l-31.34 18.094c-2.39 1.38-6.27 1.38-8.66 0l-31.34-18.094c-2.39-1.38-2.39-3.621 0-5l31.34-18.094c2.39-1.38 6.27-1.38 8.66 0zm60 34.728l31.34 18.094c2.39 1.38 2.39 3.62 0 5l-31.34 18.095c-2.39 1.38-6.27 1.38-8.66 0l-31.34-18.095c-2.39-1.38-2.39-3.62 0-5l31.34-18.094c2.39-1.38 6.27-1.38 8.66 0zm60 34.729l31.34 18.094c2.39 1.379 2.39 3.62 0 5l-31.34 18.094c-2.39 1.38-6.27 1.38-8.66 0l-31.34-18.094c-2.39-1.38-2.39-3.621 0-5l31.34-18.094c2.39-1.38 6.27-1.38 8.66 0zm60 34.727l31.34 18.094c2.39 1.38 2.39 3.62 0 5l-31.34 18.095c-2.39 1.38-6.27 1.38-8.66 0l-31.34-18.095c-2.39-1.38-2.39-3.62 0-5l31.34-18.094c2.39-1.379 6.27-1.379 8.66 0zm60 34.729l31.34 18.094c2.39 1.38 2.39 3.62 0 5l-31.34 18.094c-2.39 1.38-6.27 1.38-8.66 0l-31.34-18.094c-2.39-1.38-2.39-3.62 0-5l31.34-18.094c2.39-1.38 6.27-1.38 8.66 0zm60 34.728l31.34 18.094c2.39 1.38 2.39 3.62 0 5l-31.34 18.095c-2.39 1.38-6.27 1.38-8.66 0l-31.34-18.095c-2.39-1.38-2.39-3.62 0-5l31.34-18.094c2.39-1.379 6.27-1.379 8.66 0zm60 34.728l31.34 18.094c2.39 1.38 2.39 3.621 0 5l-31.34 18.094c-2.39 1.38-6.27 1.38-8.66 0l-31.34-18.094c-2.39-1.379-2.39-3.62 0-5l31.34-18.094c2.39-1.38 6.27-1.38 8.66 0zm59.997 33.879l91.346 52.882c2.388 1.383 2.387 3.625-.003 5.005l-31.34 18.094c-2.39 1.38-6.269 1.378-8.657-.005l-91.346-52.882c-2.388-1.383-2.387-3.625.003-5.005l31.34-18.094c2.39-1.38 6.269-1.378 8.657.005zm-599.997-276.976l51.34 29.641c2.39 1.38 2.39 3.62 0 5l-31.34 18.095c-2.39 1.379-6.27 1.379-8.66 0l-51.34-29.642c-2.39-1.38-2.39-3.62 0-5l31.34-18.094c2.39-1.38 6.27-1.38 8.66 0zm80 46.188l31.34 18.094c2.39 1.379 2.39 3.62 0 5l-31.34 18.094c-2.39 1.38-6.27 1.38-8.66 0l-31.34-18.094c-2.39-1.38-2.39-3.621 0-5l31.34-18.094c2.39-1.38 6.27-1.38 8.66 0zm60 34.728l31.34 18.094c2.39 1.38 2.39 3.62 0 5l-31.34 18.095c-2.39 1.38-6.27 1.38-8.66 0l-31.34-18.095c-2.39-1.38-2.39-3.62 0-5l31.34-18.094c2.39-1.38 6.27-1.38 8.66 0zm60 34.728l31.34 18.095c2.39 1.378 2.39 3.62 0 5l-31.34 18.093c-2.39 1.38-6.27 1.38-8.66 0l-31.34-18.093c-2.39-1.38-2.39-3.622 0-5l31.34-18.095c2.39-1.379 6.27-1.379 8.66 0zm60 34.728l31.34 18.094c2.39 1.38 2.39 3.62 0 5l-31.34 18.095c-2.39 1.38-6.27 1.38-8.66 0l-31.34-18.095c-2.39-1.38-2.39-3.62 0-5l31.34-18.094c2.39-1.38 6.27-1.38 8.66 0zm60 34.729l31.34 18.094c2.39 1.38 2.39 3.62 0 5l-31.34 18.094c-2.39 1.38-6.27 1.38-8.66 0l-31.34-18.094c-2.39-1.38-2.39-3.62 0-5l31.34-18.094c2.39-1.38 6.27-1.38 8.66 0zm180 104.184l31.34 18.094c2.39 1.38 2.39 3.62 0 5l-31.34 18.095c-2.39 1.38-6.27 1.38-8.66 0l-31.34-18.095c-2.39-1.38-2.39-3.62 0-5l31.34-18.094c2.39-1.379 6.27-1.379 8.66 0zm-560-254.644l71.34 41.188c2.39 1.38 2.39 3.621 0 5l-31.34 18.094c-2.39 1.38-6.27 1.38-8.66 0l-71.34-41.188c-2.39-1.38-2.39-3.62 0-5l31.34-18.094c2.39-1.38 6.27-1.38 8.66 0zm100 57.735l31.34 18.094c2.39 1.38 2.39 3.62 0 5l-31.34 18.095c-2.39 1.38-6.27 1.38-8.66 0l-31.34-18.095c-2.39-1.38-2.39-3.62 0-5l31.34-18.094c2.39-1.38 6.27-1.38 8.66 0zm60 34.729l31.34 18.094c2.39 1.379 2.39 3.62 0 5l-31.34 18.094c-2.39 1.379-6.27 1.379-8.66 0l-31.34-18.094c-2.39-1.38-2.39-3.621 0-5l31.34-18.094c2.39-1.38 6.27-1.38 8.66 0zm60 34.727l31.34 18.094c2.39 1.38 2.39 3.62 0 5l-31.34 18.095c-2.39 1.38-6.27 1.38-8.66 0l-31.34-18.095c-2.39-1.38-2.39-3.62 0-5l31.34-18.094c2.39-1.38 6.27-1.38 8.66 0zm60 34.729l31.34 18.094c2.39 1.379 2.39 3.62 0 5l-31.34 18.094c-2.39 1.38-6.27 1.38-8.66 0l-31.34-18.094c-2.39-1.38-2.39-3.621 0-5l31.34-18.094c2.39-1.38 6.27-1.38 8.66 0zm60 34.728l31.34 18.094c2.39 1.38 2.39 3.62 0 5l-31.34 18.095c-2.39 1.38-6.27 1.38-8.66 0l-31.34-18.095c-2.39-1.38-2.39-3.62 0-5l31.34-18.094c2.39-1.38 6.27-1.38 8.66 0zm60 34.728l31.34 18.094c2.39 1.38 2.39 3.62 0 5l-31.34 18.094c-2.39 1.38-6.27 1.38-8.66 0l-31.34-18.094c-2.39-1.38-2.39-3.62 0-5l31.34-18.094c2.39-1.38 6.27-1.38 8.66 0zm60 34.728l31.34 18.094c2.39 1.38 2.39 3.62 0 5l-31.34 18.095c-2.39 1.38-6.27 1.38-8.66 0l-31.34-18.095c-2.39-1.38-2.39-3.62 0-5l31.34-18.094c2.39-1.379 6.27-1.379 8.66 0zm60 34.729l31.34 18.094c2.39 1.38 2.39 3.62 0 5l-31.34 18.094c-2.39 1.38-6.27 1.38-8.66 0l-31.34-18.094c-2.39-1.38-2.39-3.62 0-5l31.34-18.094c2.39-1.38 6.27-1.38 8.66 0zm-580-266.192l91.34 52.735c2.39 1.38 2.39 3.62 0 5l-31.34 18.094c-2.39 1.38-6.27 1.38-8.66 0l-91.34-52.736c-2.39-1.38-2.39-3.62 0-5l31.34-18.093c2.39-1.38 6.27-1.38 8.66 0zm120 69.282l31.34 18.094c2.39 1.379 2.39 3.62 0 5l-31.34 18.094c-2.39 1.38-6.27 1.38-8.66 0l-31.34-18.094c-2.39-1.38-2.39-3.621 0-5l31.34-18.094c2.39-1.38 6.27-1.38 8.66 0zm60 34.728l31.34 18.094c2.39 1.38 2.39 3.62 0 5l-31.34 18.095c-2.39 1.38-6.27 1.38-8.66 0l-31.34-18.095c-2.39-1.38-2.39-3.62 0-5l31.34-18.094c2.39-1.38 6.27-1.38 8.66 0zm60 34.729l31.34 18.094c2.39 1.379 2.39 3.62 0 5l-31.34 18.094c-2.39 1.38-6.27 1.38-8.66 0l-31.34-18.094c-2.39-1.38-2.39-3.621 0-5l31.34-18.094c2.39-1.38 6.27-1.38 8.66 0zm60 34.728l31.34 18.094c2.39 1.379 2.39 3.62 0 5l-31.34 18.094c-2.39 1.38-6.27 1.38-8.66 0l-31.34-18.094c-2.39-1.38-2.39-3.621 0-5l31.34-18.094c2.39-1.38 6.27-1.38 8.66 0zm60 34.728l31.34 18.094c2.39 1.379 2.39 3.62 0 5l-31.34 18.094c-2.39 1.38-6.27 1.38-8.66 0l-31.34-18.094c-2.39-1.38-2.39-3.621 0-5l31.34-18.094c2.39-1.38 6.27-1.38 8.66 0zm60 34.728l31.34 18.094c2.39 1.38 2.39 3.62 0 5l-31.34 18.095c-2.39 1.38-6.27 1.38-8.66 0l-31.34-18.095c-2.39-1.38-2.39-3.62 0-5l31.34-18.094c2.39-1.38 6.27-1.38 8.66 0zm60 34.729l31.34 18.094c2.39 1.379 2.39 3.62 0 5l-31.34 18.094c-2.39 1.379-6.27 1.379-8.66 0l-31.34-18.094c-2.39-1.38-2.39-3.621 0-5l31.34-18.094c2.39-1.38 6.27-1.38 8.66 0zm60 34.727l31.34 18.094c2.39 1.38 2.39 3.62 0 5l-31.34 18.095c-2.39 1.38-6.27 1.38-8.66 0l-31.34-18.095c-2.39-1.38-2.39-3.62 0-5l31.34-18.094c2.39-1.379 6.27-1.379 8.66 0zm60 34.031l31.34 18.093c2.39 1.38 2.39 3.622 0 5l-31.34 18.095c-2.39 1.38-6.27 1.38-8.66 0l-31.34-18.095c-2.39-1.378-2.39-3.62 0-5l31.34-18.093c2.39-1.38 6.27-1.38 8.66 0zm-660-311.769l31.34 18.094c2.39 1.38 2.39 3.62 0 5l-31.34 18.095c-2.39 1.38-6.27 1.38-8.66 0l-31.34-18.095c-2.39-1.38-2.39-3.62 0-5l31.34-18.094c2.39-1.38 6.27-1.38 8.66 0zm60 34.641l31.34 18.094c2.39 1.379 2.39 3.62 0 5l-31.34 18.094c-2.39 1.38-6.27 1.38-8.66 0l-31.34-18.094c-2.39-1.38-2.39-3.621 0-5l31.34-18.094c2.39-1.38 6.27-1.38 8.66 0zm60 34.728l31.34 18.094c2.39 1.38 2.39 3.62 0 5l-31.34 18.095c-2.39 1.38-6.27 1.38-8.66 0l-31.34-18.095c-2.39-1.38-2.39-3.62 0-5l31.34-18.094c2.39-1.38 6.27-1.38 8.66 0zm60 34.554l211.34 122.018c2.39 1.379 2.39 3.62 0 5l-31.34 18.093c-2.39 1.38-6.27 1.38-8.66 0l-211.34-122.017c-2.39-1.38-2.39-3.62 0-5l31.34-18.094c2.39-1.38 6.27-1.38 8.66 0zm240 139l31.34 18.094c2.39 1.38 2.39 3.62 0 5l-31.34 18.094c-2.39 1.38-6.27 1.38-8.66 0l-31.34-18.094c-2.39-1.38-2.39-3.62 0-5l31.34-18.094c2.39-1.38 6.27-1.38 8.66 0zm60 34.729l31.34 18.093c2.39 1.38 2.39 3.62 0 5l-31.34 18.095c-2.39 1.38-6.27 1.38-8.66 0l-31.34-18.095c-2.39-1.38-2.39-3.62 0-5l31.34-18.093c2.39-1.38 6.27-1.38 8.66 0zm60 34.728l31.34 18.094c2.39 1.38 2.39 3.62 0 5l-31.34 18.095c-2.39 1.379-6.27 1.379-8.66 0l-31.34-18.095c-2.39-1.38-2.39-3.62 0-5l31.34-18.094c2.39-1.38 6.27-1.38 8.66 0zm60 34.03l31.34 18.094c2.39 1.38 2.39 3.62 0 5l-31.34 18.095c-2.39 1.38-6.27 1.38-8.66 0l-31.34-18.095c-2.39-1.38-2.39-3.62 0-5l31.34-18.094c2.39-1.38 6.27-1.38 8.66 0zm211.34-85.829l-71.34-41.188c-2.39-1.38-6.27-1.38-8.66 0l-31.34 18.094c-2.39 1.38-2.39 3.621 0 5l11.34 6.547c2.39 1.38 2.39 3.62 0 5l-51.34 29.641c-2.39 1.38-2.39 3.62 0 5l51.34 29.642c2.39 1.379 6.27 1.379 8.66 0l91.34-52.736c2.39-1.38 2.39-3.62 0-5z" fill-rule="evenodd" fill="#FCC475" opacity=".68" filter="url(#m)"/>
      <linearGradient id="n" x1=".133" y1=".127" x2=".839" y2=".791" gradientTransform="matrix(954.924 0 0 551.327 -1297.462 -13150.574)" gradientUnits="userSpaceOnUse">
        <stop offset="1.739%" stop-color="#70468f"/>
        <stop offset="97.826%" stop-color="#562e75"/>
      </linearGradient>
      <path d="M-695.67-12871.975l31.34 18.094c2.39 1.379 2.39 3.62 0 5l-31.34 18.094c-2.39 1.38-6.27 1.38-8.66 0l-31.34-18.094c-2.39-1.38-2.39-3.621 0-5l31.34-18.094c2.39-1.379 6.27-1.379 8.66 0zm60 34.728l31.34 18.094c2.39 1.38 2.39 3.62 0 5l-31.34 18.094c-2.39 1.38-6.27 1.38-8.66 0l-31.34-18.094c-2.39-1.38-2.39-3.62 0-5l31.34-18.094c2.39-1.38 6.27-1.38 8.66 0zm-220-243.011l31.34 18.094c2.39 1.38 2.39 3.62 0 5l-11.34 6.547c-2.39 1.38-6.27 1.38-8.66 0l-31.34-18.094c-2.39-1.38-2.39-3.62 0-5l11.34-6.547c2.39-1.38 6.27-1.38 8.66 0zm60 34.641l31.34 18.094c2.39 1.379 2.39 3.62 0 5l-11.34 6.546c-2.39 1.38-6.27 1.38-8.66 0l-31.34-18.093c-2.39-1.38-2.39-3.62 0-5l11.34-6.547c2.39-1.38 6.27-1.38 8.66 0zm60 34.64l31.34 18.094c2.39 1.38 2.39 3.62 0 5l-11.34 6.547c-2.39 1.38-6.27 1.38-8.66 0l-31.34-18.094c-2.39-1.38-2.39-3.62 0-5l11.34-6.547c2.39-1.379 6.27-1.379 8.66 0zm-180-103.921l31.34 18.093c2.39 1.38 2.39 3.62 0 5l-11.34 6.547c-2.39 1.38-6.27 1.38-8.66 0l-31.34-18.094c-2.39-1.379-2.39-3.62 0-5l11.34-6.546c2.39-1.38 6.27-1.38 8.66 0zm240 138.562l31.34 18.094c2.39 1.38 2.39 3.62 0 5l-11.34 6.547c-2.39 1.38-6.27 1.38-8.66 0l-31.34-18.094c-2.39-1.38-2.39-3.62 0-5l11.34-6.547c2.39-1.38 6.27-1.38 8.66 0zm-300-173.203l31.34 18.094c2.39 1.38 2.39 3.62 0 5l-11.34 6.547c-2.39 1.379-6.27 1.379-8.66 0l-31.34-18.094c-2.39-1.38-2.39-3.62 0-5l11.34-6.547c2.39-1.38 6.27-1.38 8.66 0zm360 207.844l31.34 18.093c2.39 1.38 2.39 3.621 0 5l-11.34 6.547c-2.39 1.38-6.27 1.38-8.66 0l-31.34-18.093c-2.39-1.38-2.39-3.621 0-5l11.34-6.547c2.39-1.38 6.27-1.38 8.66 0zm60 34.64l31.34 18.094c2.39 1.38 2.39 3.62 0 5l-11.34 6.547c-2.39 1.38-6.27 1.38-8.66 0l-31.34-18.094c-2.39-1.38-2.39-3.62 0-5l11.34-6.547c2.39-1.38 6.27-1.38 8.66 0zm60 34.641l31.34 18.094c2.39 1.38 2.39 3.62 0 5l-11.34 6.547c-2.39 1.379-6.27 1.379-8.66 0l-31.34-18.094c-2.39-1.38-2.39-3.62 0-5l11.34-6.547c2.39-1.38 6.27-1.38 8.66 0zm60 34.641l31.34 18.093c2.39 1.38 2.39 3.62 0 5l-11.34 6.547c-2.39 1.38-6.27 1.38-8.66 0l-31.34-18.094c-2.39-1.379-2.39-3.62 0-5l11.34-6.546c2.39-1.38 6.27-1.38 8.66 0zm60 34.64l31.34 18.094c2.39 1.38 2.39 3.62 0 5l-11.34 6.547c-2.39 1.38-6.27 1.38-8.66 0l-31.34-18.094c-2.39-1.38-2.39-3.62 0-5l11.34-6.547c2.39-1.38 6.27-1.38 8.66 0zm-640-323.312l31.34 18.093c2.39 1.38 2.39 3.621 0 5l-31.34 18.095c-2.39 1.38-6.27 1.38-8.66 0l-31.34-18.095c-2.39-1.379-2.39-3.62 0-5l31.34-18.093c2.39-1.38 6.27-1.38 8.66 0zm60 34.641l31.34 18.094c2.39 1.38 2.39 3.62 0 5l-31.34 18.095c-2.39 1.379-6.27 1.379-8.66 0l-31.34-18.095c-2.39-1.38-2.39-3.62 0-5l31.34-18.094c2.39-1.38 6.27-1.38 8.66 0zm60 34.728l31.34 18.094c2.39 1.379 2.39 3.62 0 5l-31.34 18.094c-2.39 1.38-6.27 1.38-8.66 0l-31.34-18.094c-2.39-1.38-2.39-3.621 0-5l31.34-18.094c2.39-1.38 6.27-1.38 8.66 0zm60 34.728l31.34 18.094c2.39 1.38 2.39 3.62 0 5l-31.34 18.095c-2.39 1.38-6.27 1.38-8.66 0l-31.34-18.095c-2.39-1.38-2.39-3.62 0-5l31.34-18.094c2.39-1.38 6.27-1.38 8.66 0zm60 34.729l31.34 18.094c2.39 1.379 2.39 3.62 0 5l-31.34 18.094c-2.39 1.38-6.27 1.38-8.66 0l-31.34-18.094c-2.39-1.38-2.39-3.621 0-5l31.34-18.094c2.39-1.38 6.27-1.38 8.66 0zm60 34.727l31.34 18.094c2.39 1.38 2.39 3.62 0 5l-31.34 18.095c-2.39 1.38-6.27 1.38-8.66 0l-31.34-18.095c-2.39-1.38-2.39-3.62 0-5l31.34-18.094c2.39-1.379 6.27-1.379 8.66 0zm60 34.729l31.34 18.094c2.39 1.38 2.39 3.62 0 5l-31.34 18.094c-2.39 1.38-6.27 1.38-8.66 0l-31.34-18.094c-2.39-1.38-2.39-3.62 0-5l31.34-18.094c2.39-1.38 6.27-1.38 8.66 0zm60 34.728l31.34 18.094c2.39 1.38 2.39 3.62 0 5l-31.34 18.095c-2.39 1.38-6.27 1.38-8.66 0l-31.34-18.095c-2.39-1.38-2.39-3.62 0-5l31.34-18.094c2.39-1.379 6.27-1.379 8.66 0zm60 34.728l31.34 18.094c2.39 1.38 2.39 3.621 0 5l-31.34 18.094c-2.39 1.38-6.27 1.38-8.66 0l-31.34-18.094c-2.39-1.379-2.39-3.62 0-5l31.34-18.094c2.39-1.38 6.27-1.38 8.66 0zm59.997 33.879l91.346 52.882c2.388 1.383 2.387 3.625-.003 5.005l-31.34 18.094c-2.39 1.38-6.269 1.378-8.657-.005l-91.346-52.882c-2.388-1.383-2.387-3.625.003-5.005l31.34-18.094c2.39-1.38 6.269-1.378 8.657.005zm-599.997-276.976l51.34 29.641c2.39 1.38 2.39 3.62 0 5l-31.34 18.095c-2.39 1.379-6.27 1.379-8.66 0l-51.34-29.642c-2.39-1.38-2.39-3.62 0-5l31.34-18.094c2.39-1.38 6.27-1.38 8.66 0zm80 46.188l31.34 18.094c2.39 1.379 2.39 3.62 0 5l-31.34 18.094c-2.39 1.38-6.27 1.38-8.66 0l-31.34-18.094c-2.39-1.38-2.39-3.621 0-5l31.34-18.094c2.39-1.38 6.27-1.38 8.66 0zm60 34.728l31.34 18.094c2.39 1.38 2.39 3.62 0 5l-31.34 18.095c-2.39 1.38-6.27 1.38-8.66 0l-31.34-18.095c-2.39-1.38-2.39-3.62 0-5l31.34-18.094c2.39-1.38 6.27-1.38 8.66 0zm60 34.728l31.34 18.095c2.39 1.378 2.39 3.62 0 5l-31.34 18.093c-2.39 1.38-6.27 1.38-8.66 0l-31.34-18.093c-2.39-1.38-2.39-3.622 0-5l31.34-18.095c2.39-1.379 6.27-1.379 8.66 0zm60 34.728l31.34 18.094c2.39 1.38 2.39 3.62 0 5l-31.34 18.095c-2.39 1.38-6.27 1.38-8.66 0l-31.34-18.095c-2.39-1.38-2.39-3.62 0-5l31.34-18.094c2.39-1.38 6.27-1.38 8.66 0zm60 34.729l31.34 18.094c2.39 1.38 2.39 3.62 0 5l-31.34 18.094c-2.39 1.38-6.27 1.38-8.66 0l-31.34-18.094c-2.39-1.38-2.39-3.62 0-5l31.34-18.094c2.39-1.38 6.27-1.38 8.66 0zm180 104.184l31.34 18.094c2.39 1.38 2.39 3.62 0 5l-31.34 18.095c-2.39 1.38-6.27 1.38-8.66 0l-31.34-18.095c-2.39-1.38-2.39-3.62 0-5l31.34-18.094c2.39-1.379 6.27-1.379 8.66 0zm-560-254.644l71.34 41.188c2.39 1.38 2.39 3.621 0 5l-31.34 18.094c-2.39 1.38-6.27 1.38-8.66 0l-71.34-41.188c-2.39-1.38-2.39-3.62 0-5l31.34-18.094c2.39-1.38 6.27-1.38 8.66 0zm100 57.735l31.34 18.094c2.39 1.38 2.39 3.62 0 5l-31.34 18.095c-2.39 1.38-6.27 1.38-8.66 0l-31.34-18.095c-2.39-1.38-2.39-3.62 0-5l31.34-18.094c2.39-1.38 6.27-1.38 8.66 0zm60 34.729l31.34 18.094c2.39 1.379 2.39 3.62 0 5l-31.34 18.094c-2.39 1.379-6.27 1.379-8.66 0l-31.34-18.094c-2.39-1.38-2.39-3.621 0-5l31.34-18.094c2.39-1.38 6.27-1.38 8.66 0zm60 34.727l31.34 18.094c2.39 1.38 2.39 3.62 0 5l-31.34 18.095c-2.39 1.38-6.27 1.38-8.66 0l-31.34-18.095c-2.39-1.38-2.39-3.62 0-5l31.34-18.094c2.39-1.38 6.27-1.38 8.66 0zm60 34.729l31.34 18.094c2.39 1.379 2.39 3.62 0 5l-31.34 18.094c-2.39 1.38-6.27 1.38-8.66 0l-31.34-18.094c-2.39-1.38-2.39-3.621 0-5l31.34-18.094c2.39-1.38 6.27-1.38 8.66 0zm60 34.728l31.34 18.094c2.39 1.38 2.39 3.62 0 5l-31.34 18.095c-2.39 1.38-6.27 1.38-8.66 0l-31.34-18.095c-2.39-1.38-2.39-3.62 0-5l31.34-18.094c2.39-1.38 6.27-1.38 8.66 0zm60 34.728l31.34 18.094c2.39 1.38 2.39 3.62 0 5l-31.34 18.094c-2.39 1.38-6.27 1.38-8.66 0l-31.34-18.094c-2.39-1.38-2.39-3.62 0-5l31.34-18.094c2.39-1.38 6.27-1.38 8.66 0zm60 34.728l31.34 18.094c2.39 1.38 2.39 3.62 0 5l-31.34 18.095c-2.39 1.38-6.27 1.38-8.66 0l-31.34-18.095c-2.39-1.38-2.39-3.62 0-5l31.34-18.094c2.39-1.379 6.27-1.379 8.66 0zm60 34.729l31.34 18.094c2.39 1.38 2.39 3.62 0 5l-31.34 18.094c-2.39 1.38-6.27 1.38-8.66 0l-31.34-18.094c-2.39-1.38-2.39-3.62 0-5l31.34-18.094c2.39-1.38 6.27-1.38 8.66 0zm-580-266.192l91.34 52.735c2.39 1.38 2.39 3.62 0 5l-31.34 18.094c-2.39 1.38-6.27 1.38-8.66 0l-91.34-52.736c-2.39-1.38-2.39-3.62 0-5l31.34-18.093c2.39-1.38 6.27-1.38 8.66 0zm120 69.282l31.34 18.094c2.39 1.379 2.39 3.62 0 5l-31.34 18.094c-2.39 1.38-6.27 1.38-8.66 0l-31.34-18.094c-2.39-1.38-2.39-3.621 0-5l31.34-18.094c2.39-1.38 6.27-1.38 8.66 0zm60 34.728l31.34 18.094c2.39 1.38 2.39 3.62 0 5l-31.34 18.095c-2.39 1.38-6.27 1.38-8.66 0l-31.34-18.095c-2.39-1.38-2.39-3.62 0-5l31.34-18.094c2.39-1.38 6.27-1.38 8.66 0zm60 34.729l31.34 18.094c2.39 1.379 2.39 3.62 0 5l-31.34 18.094c-2.39 1.38-6.27 1.38-8.66 0l-31.34-18.094c-2.39-1.38-2.39-3.621 0-5l31.34-18.094c2.39-1.38 6.27-1.38 8.66 0zm60 34.728l31.34 18.094c2.39 1.379 2.39 3.62 0 5l-31.34 18.094c-2.39 1.38-6.27 1.38-8.66 0l-31.34-18.094c-2.39-1.38-2.39-3.621 0-5l31.34-18.094c2.39-1.38 6.27-1.38 8.66 0zm60 34.728l31.34 18.094c2.39 1.379 2.39 3.62 0 5l-31.34 18.094c-2.39 1.38-6.27 1.38-8.66 0l-31.34-18.094c-2.39-1.38-2.39-3.621 0-5l31.34-18.094c2.39-1.38 6.27-1.38 8.66 0zm60 34.728l31.34 18.094c2.39 1.38 2.39 3.62 0 5l-31.34 18.095c-2.39 1.38-6.27 1.38-8.66 0l-31.34-18.095c-2.39-1.38-2.39-3.62 0-5l31.34-18.094c2.39-1.38 6.27-1.38 8.66 0zm60 34.729l31.34 18.094c2.39 1.379 2.39 3.62 0 5l-31.34 18.094c-2.39 1.379-6.27 1.379-8.66 0l-31.34-18.094c-2.39-1.38-2.39-3.621 0-5l31.34-18.094c2.39-1.38 6.27-1.38 8.66 0zm60 34.727l31.34 18.094c2.39 1.38 2.39 3.62 0 5l-31.34 18.095c-2.39 1.38-6.27 1.38-8.66 0l-31.34-18.095c-2.39-1.38-2.39-3.62 0-5l31.34-18.094c2.39-1.379 6.27-1.379 8.66 0zm60 34.031l31.34 18.093c2.39 1.38 2.39 3.622 0 5l-31.34 18.095c-2.39 1.38-6.27 1.38-8.66 0l-31.34-18.095c-2.39-1.378-2.39-3.62 0-5l31.34-18.093c2.39-1.38 6.27-1.38 8.66 0zm-660-311.769l31.34 18.094c2.39 1.38 2.39 3.62 0 5l-31.34 18.095c-2.39 1.38-6.27 1.38-8.66 0l-31.34-18.095c-2.39-1.38-2.39-3.62 0-5l31.34-18.094c2.39-1.38 6.27-1.38 8.66 0zm60 34.641l31.34 18.094c2.39 1.379 2.39 3.62 0 5l-31.34 18.094c-2.39 1.38-6.27 1.38-8.66 0l-31.34-18.094c-2.39-1.38-2.39-3.621 0-5l31.34-18.094c2.39-1.38 6.27-1.38 8.66 0zm60 34.728l31.34 18.094c2.39 1.38 2.39 3.62 0 5l-31.34 18.095c-2.39 1.38-6.27 1.38-8.66 0l-31.34-18.095c-2.39-1.38-2.39-3.62 0-5l31.34-18.094c2.39-1.38 6.27-1.38 8.66 0zm60 34.554l211.34 122.018c2.39 1.379 2.39 3.62 0 5l-31.34 18.093c-2.39 1.38-6.27 1.38-8.66 0l-211.34-122.017c-2.39-1.38-2.39-3.62 0-5l31.34-18.094c2.39-1.38 6.27-1.38 8.66 0zm240 139l31.34 18.094c2.39 1.38 2.39 3.62 0 5l-31.34 18.094c-2.39 1.38-6.27 1.38-8.66 0l-31.34-18.094c-2.39-1.38-2.39-3.62 0-5l31.34-18.094c2.39-1.38 6.27-1.38 8.66 0zm60 34.729l31.34 18.093c2.39 1.38 2.39 3.62 0 5l-31.34 18.095c-2.39 1.38-6.27 1.38-8.66 0l-31.34-18.095c-2.39-1.38-2.39-3.62 0-5l31.34-18.093c2.39-1.38 6.27-1.38 8.66 0zm60 34.728l31.34 18.094c2.39 1.38 2.39 3.62 0 5l-31.34 18.095c-2.39 1.379-6.27 1.379-8.66 0l-31.34-18.095c-2.39-1.38-2.39-3.62 0-5l31.34-18.094c2.39-1.38 6.27-1.38 8.66 0zm60 34.03l31.34 18.094c2.39 1.38 2.39 3.62 0 5l-31.34 18.095c-2.39 1.38-6.27 1.38-8.66 0l-31.34-18.095c-2.39-1.38-2.39-3.62 0-5l31.34-18.094c2.39-1.38 6.27-1.38 8.66 0zm211.34-85.829l-71.34-41.188c-2.39-1.38-6.27-1.38-8.66 0l-31.34 18.094c-2.39 1.38-2.39 3.621 0 5l11.34 6.547c2.39 1.38 2.39 3.62 0 5l-51.34 29.641c-2.39 1.38-2.39 3.62 0 5l51.34 29.642c2.39 1.379 6.27 1.379 8.66 0l91.34-52.736c2.39-1.38 2.39-3.62 0-5z" fill-rule="evenodd" fill="url(#n)"/>
    </g>
    <g>
      <defs>
        <filter id="o" x="-200%" y="-200%" width="400%" height="400%" filterUnits="objectBoundingBox" color-interpolation-filters="sRGB">
          <feGaussianBlur xmlns="http://www.w3.org/2000/svg" in="SourceGraphic" stdDeviation="3.006"/>
          <feOffset xmlns="http://www.w3.org/2000/svg" dx="3" dy="5" result="pf_100_offsetBlur"/>
          <feFlood xmlns="http://www.w3.org/2000/svg" flood-color="#000" flood-opacity=".5"/>
          <feComposite xmlns="http://www.w3.org/2000/svg" in2="pf_100_offsetBlur" operator="in" result="pf_100_dropShadow"/>
          <feBlend xmlns="http://www.w3.org/2000/svg" in="SourceGraphic" in2="pf_100_dropShadow"/>
        </filter>
      </defs>
      <g filter="url(#o)">
        <linearGradient id="p" y1=".5" x2="1" y2=".5" gradientTransform="matrix(1094.875 0 0 639.307 -2671.746 -13275.99)" gradientUnits="userSpaceOnUse">
          <stop offset="2.609%" stop-color="#421a60"/>
          <stop offset="96.522%" stop-color="#2b0d42"/>
        </linearGradient>
        <path d="M-1585.871-13033.346l-424.039-230.697c-12.12-6.594-31.73-6.466-43.763.285l-605.375 339.64c-7.008 12.63-.635 29.822 14.222 38.369l411.285 236.599c11.96 6.88 31.372 6.865 43.32-.035l591.7-341.66c11.949-6.899 18.432-23.231 14.467-36.447l-1.817-6.054z" fill="url(#p)"/>
      </g>
      <linearGradient id="q" x1=".213" y1=".197" x2=".799" y2=".796" gradientTransform="matrix(1100 0 0 635.085 -2671.871 -13294.863)" gradientUnits="userSpaceOnUse">
        <stop offset="2.609%" stop-color="#5f2c85"/>
        <stop offset="98.261%" stop-color="#45136b"/>
      </linearGradient>
      <path d="M-2053.521-13282.363l-596.699 344.504c-11.949 6.899-11.949 18.101 0 25l416.699 240.581c11.949 6.899 31.352 6.899 43.301 0l596.699-344.504c11.949-6.899 11.949-18.101 0-25l-416.699-240.581c-11.949-6.899-31.352-6.899-43.301 0z" fill="url(#q)"/>
      <defs>
        <filter id="r" x="-200%" y="-200%" width="400%" height="400%" filterUnits="objectBoundingBox" color-interpolation-filters="sRGB">
          <feGaussianBlur xmlns="http://www.w3.org/2000/svg" stdDeviation="12.881"/>
        </filter>
      </defs>
      <path d="M-2534.55-12938.453l345.359 199.392c9.559 5.52 25.082 5.52 34.641 0l485.359-280.221c9.559-5.519 9.559-14.481 0-20l-345.359-199.394c-9.559-5.519-25.082-5.519-34.641 0l-485.359 280.223c-9.559 5.519-9.559 14.481 0 20z" fill="#FF9A03" filter="url(#r)"/>
      <path d="M-2534.55-12938.453l345.359 199.392c9.559 5.52 25.082 5.52 34.641 0l485.359-280.221c9.559-5.519 9.559-14.481 0-20l-345.359-199.394c-9.559-5.519-25.082-5.519-34.641 0l-485.359 280.223c-9.559 5.519-9.559 14.481 0 20z" fill="#F90"/>
      <linearGradient id="s" x1=".773" y1=".719" x2=".255" y2=".19" gradientTransform="matrix(900 0 0 519.615 -2551.871 -13248.676)" gradientUnits="userSpaceOnUse">
        <stop offset="1.739%" stop-opacity="0" stop-color="#fff"/>
        <stop offset="97.826%" stop-opacity=".57" stop-color="#fff"/>
      </linearGradient>
      <path d="M-2534.55-12938.453l345.359 199.392c9.559 5.52 25.082 5.52 34.641 0l485.359-280.221c9.559-5.519 9.559-14.481 0-20l-345.359-199.394c-9.559-5.519-25.082-5.519-34.641 0l-485.359 280.223c-9.559 5.519-9.559 14.481 0 20z" fill="url(#s)"/>
      <linearGradient id="t" x1=".166" y1=".236" x2=".746" y2=".833" gradientTransform="matrix(48 0 0 35.134 -2427.871 -12839.346)" gradientUnits="userSpaceOnUse">
        <stop offset="0%" stop-color="#3c105d"/>
        <stop offset="100%" stop-color="#300d4a"/>
      </linearGradient>
      <ellipse vector-effect="non-scaling-stroke" cx="-2403.871" cy="-12821.779" rx="24" ry="17.567" fill="url(#t)"/>
      <ellipse vector-effect="non-scaling-stroke" cx="-1840.871" cy="-13161.912" rx="6.057" ry="4.433" fill="#2F1334"/>
      <path d="M-2254.467-12675.675c-2.266-1.308-4.106-.246-4.106 2.371s1.84 5.804 4.106 7.113c2.266 1.308 4.106.246 4.106-2.371s-1.84-5.804-4.106-7.113z" fill="#2F1334"/>
    </g>
    <g>
      <defs>
        <filter id="u" x="-200%" y="-200%" width="400%" height="400%" filterUnits="objectBoundingBox" color-interpolation-filters="sRGB">
          <feGaussianBlur xmlns="http://www.w3.org/2000/svg" in="SourceGraphic" stdDeviation="3.006"/>
          <feOffset xmlns="http://www.w3.org/2000/svg" dx="2" dy="4" result="pf_100_offsetBlur"/>
          <feFlood xmlns="http://www.w3.org/2000/svg" flood-color="#000" flood-opacity=".5"/>
          <feComposite xmlns="http://www.w3.org/2000/svg" in2="pf_100_offsetBlur" operator="in" result="pf_100_dropShadow"/>
          <feBlend xmlns="http://www.w3.org/2000/svg" in="SourceGraphic" in2="pf_100_dropShadow"/>
        </filter>
      </defs>
      <g filter="url(#u)">
        <linearGradient id="v" y1=".5" x2="1" y2=".5" gradientTransform="matrix(491.376 0 0 290.14 -2125.058 -12769.741)" gradientUnits="userSpaceOnUse">
          <stop offset="2.609%" stop-color="#421a60"/>
          <stop offset="96.522%" stop-color="#2b0d42"/>
        </linearGradient>
        <path d="M-2122.045-12597.068l1.985-9.682 299.698-156.063c7.343-3.823 19.393-4.082 26.893-.576l158.037 73.871.834 13.657c.505 8.263-4.902 18.337-12.068 22.483l-287.408 166.266c-7.166 4.145-18.805 4.15-25.974.011l-152.02-87.772c-7.169-4.14-11.64-14.085-9.977-22.195z" fill="url(#v)"/>
      </g>
      <linearGradient id="w" x1=".213" y1=".197" x2=".799" y2=".796" gradientTransform="matrix(500 0 0 288.676 -2127.682 -12791.887)" gradientUnits="userSpaceOnUse">
        <stop offset="2.609%" stop-color="#5f2c85"/>
        <stop offset="98.261%" stop-color="#45136b"/>
      </linearGradient>
      <path d="M-2114.692-12614.634l294.019-169.753c7.17-4.139 18.811-4.139 25.981 0l154.019 88.924c7.17 4.14 7.17 10.861 0 15l-294.019 169.752c-7.17 4.14-18.811 4.14-25.981 0l-154.019-88.923c-7.17-4.139-7.17-10.86 0-15z" fill="url(#w)"/>
      <defs>
        <filter id="x" x="-200%" y="-200%" width="400%" height="400%" filterUnits="objectBoundingBox" color-interpolation-filters="sRGB">
          <feGaussianBlur xmlns="http://www.w3.org/2000/svg" stdDeviation="12.881"/>
        </filter>
      </defs>
      <path d="M-2059.022-12623.681l242.679-140.111c4.78-2.759 12.541-2.759 17.321 0l122.679 70.829c4.78 2.76 4.78 7.241 0 10l-242.679 140.111c-4.78 2.759-12.541 2.759-17.321 0l-122.679-70.829c-4.78-2.76-4.78-7.241 0-10z" fill="#FF9A03" filter="url(#x)"/>
      <path d="M-2059.022-12623.681l242.679-140.111c4.78-2.759 12.541-2.759 17.321 0l122.679 70.829c4.78 2.76 4.78 7.241 0 10l-242.679 140.111c-4.78 2.759-12.541 2.759-17.321 0l-122.679-70.829c-4.78-2.76-4.78-7.241 0-10z" fill="#F90"/>
      <linearGradient id="y" x1=".731" y1=".608" x2=".366" y2=".22" gradientTransform="matrix(400 0 0 230.939 -2067.682 -12768.792)" gradientUnits="userSpaceOnUse">
        <stop offset="1.739%" stop-opacity="0" stop-color="#fff"/>
        <stop offset="97.826%" stop-opacity=".57" stop-color="#fff"/>
      </linearGradient>
      <path d="M-2059.022-12623.681l242.679-140.111c4.78-2.759 12.541-2.759 17.321 0l122.679 70.829c4.78 2.76 4.78 7.241 0 10l-242.679 140.111c-4.78 2.759-12.541 2.759-17.321 0l-122.679-70.829c-4.78-2.76-4.78-7.241 0-10z" fill="url(#y)"/>
      <linearGradient id="z" x1=".166" y1=".236" x2=".746" y2=".833" gradientTransform="matrix(26 0 0 -19.031 -2031.682 -12558.663)" gradientUnits="userSpaceOnUse">
        <stop offset="0%" stop-color="#3c105d"/>
        <stop offset="100%" stop-color="#300d4a"/>
      </linearGradient>
      <path d="M-2031.682-12568.178c0 5.251 5.825 9.515 13 9.515 7.174 0 13-4.264 13-9.515 0-5.252-5.826-9.516-13-9.516-7.175 0-13 4.264-13 9.516z" fill="url(#z)"/>
      <path d="M-1785.682-12765.862c0 1.616 1.792 2.928 4 2.928 2.207 0 4-1.312 4-2.928 0-1.615-1.793-2.927-4-2.927-2.208 0-4 1.312-4 2.927zM-1744.154-12747.094l21.183 12.23 1.911 1.103c1.613.932 1.843 2.312.512 3.081-1.331.768-3.722.636-5.336-.296l-23.093-13.333c-1.614-.932-1.844-2.312-.513-3.081 1.332-.768 3.723-.636 5.336.296zM-1975.433-12511.377c-2.52-1.456-4.567-.274-4.567 2.637s2.047 6.456 4.567 7.911c2.521 1.456 4.568.274 4.568-2.637s-2.047-6.456-4.568-7.911z" fill="#2F1334"/>
    </g>
  </g>
</svg>