<svg xmlns="http://www.w3.org/2000/svg" xmlns:xlink="http://www.w3.org/1999/xlink" width="509.934" height="314.565" viewBox="0 0 509.934 314.565">
  <defs>
    <linearGradient id="linear-gradient" x1="2.326" y1="0.566" x2="0.06" y2="0.54" gradientUnits="objectBoundingBox">
      <stop offset="0" stop-color="#ffcc70"/>
      <stop offset="0.55" stop-color="#c850c0"/>
      <stop offset="1" stop-color="#330867"/>
    </linearGradient>
  </defs>
  <path id="Soustraction_32" data-name="Soustraction 32" d="M105.718,313.565h0L0,313.561,62.713,0H331.886c34.8,0,65.918,6.406,92.5,19.04A154.626,154.626,0,0,1,460,42.166a139.959,139.959,0,0,1,43.284,69.819,174.4,174.4,0,0,1,5.543,44.8,174.454,174.454,0,0,1-5.543,44.8A139.985,139.985,0,0,1,460,271.4a155.061,155.061,0,0,1-35.61,23.122c-26.6,12.631-57.726,19.035-92.5,19.035H233.313l17.76-82.238v-.11h32.522v-.074h43.811c22.594,0,40.906-6.555,54.426-19.484s20.382-31.4,20.382-54.874-6.858-41.941-20.382-54.875c-13.352-12.765-31.377-19.319-53.573-19.48l.023-.22L189.99,79.76h-.006l.006-.028H152.3l-10.748,53.757h130.8l-16.126,79.733H125.875L105.718,313.561Z" transform="translate(0.61 0.5)" stroke="rgba(0,0,0,0)" stroke-width="1" fill="url(#linear-gradient)"/>
</svg>
