<svg xmlns="http://www.w3.org/2000/svg" style="isolation:isolate" viewBox="-316.018 277 808 808">
  <defs>
    <clipPath id="a">
      <path d="M-316.018 277h808v808h-808z"/>
    </clipPath>
  </defs>
  <g clip-path="url(#a)">
    <circle vector-effect="non-scaling-stroke" cx="87.982" cy="681" r="404" fill="#E8DA19"/>
    <clipPath id="b">
      <circle vector-effect="non-scaling-stroke" cx="87.982" cy="681" r="404" fill="#E8DA19"/>
    </clipPath>
    <g clip-path="url(#b)">
      <circle vector-effect="non-scaling-stroke" cx="88" cy="681" r="404" fill="#E8DA19"/>
      <path d="M114.304 277.845A409.836 409.836 0 0 0 87.982 277c-222.974 0-404 181.026-404 404 0 112.2 45.837 213.778 119.791 287.014l310.531-690.169z" fill="#CFDA60"/>
      <path d="M266 317.015q-204 451.943-204 767c0 3-252.001-10.015-347-240.015q-1.145-2.773 351-542.985L-312.875 634.89l-2.875-2.125Q41 279.667 42 279q110.333-14 224 38.015z" fill="#D71863"/>
      <path d="M485 757c-215.5 162.5-328.491 321-327 321 287 0 327.333-320.667 327-321z" fill="#89A03F"/>
      <path d="M-64 415l-252 285q-.914-37.711 2.336-66.336Q-216.489 548.587-64 415z" fill="#889F3E"/>
    </g>
  </g>
</svg>